<?xml version="1.0" encoding="utf-8" standalone="no"?>
<!DOCTYPE svg PUBLIC "-//W3C//DTD SVG 1.1//EN"
  "http://www.w3.org/Graphics/SVG/1.1/DTD/svg11.dtd">
<!-- Created with matplotlib (http://matplotlib.org/) -->
<svg height="288pt" version="1.1" viewBox="0 0 432 288" width="432pt" xmlns="http://www.w3.org/2000/svg" xmlns:xlink="http://www.w3.org/1999/xlink">
 <defs>
  <style type="text/css">
*{stroke-linecap:butt;stroke-linejoin:round;}
  </style>
 </defs>
 <g id="figure_1">
  <g id="patch_1">
   <path d="
M0 288
L432 288
L432 0
L0 0
z
" style="fill:#ffffff;"/>
  </g>
  <g id="axes_1">
   <g id="patch_2">
    <path d="
M54 252
L388.8 252
L388.8 28.8
L54 28.8
z
" style="fill:#ffffff;"/>
   </g>
   <g id="patch_3">
    <path clip-path="url(#p124b8dd147)" d="
M54 252
L57.348 252
L57.348 33.264
L54 33.264
z
" style="fill:#c8c8c8;stroke:#c8c8c8;stroke-linejoin:miter;"/>
   </g>
   <g id="patch_4">
    <path clip-path="url(#p124b8dd147)" d="
M57.348 252
L60.696 252
L60.696 252
L57.348 252
z
" style="fill:#c8c8c8;stroke:#c8c8c8;stroke-linejoin:miter;"/>
   </g>
   <g id="patch_5">
    <path clip-path="url(#p124b8dd147)" d="
M60.696 252
L64.044 252
L64.044 252
L60.696 252
z
" style="fill:#c8c8c8;stroke:#c8c8c8;stroke-linejoin:miter;"/>
   </g>
   <g id="patch_6">
    <path clip-path="url(#p124b8dd147)" d="
M64.044 252
L67.392 252
L67.392 252
L64.044 252
z
" style="fill:#c8c8c8;stroke:#c8c8c8;stroke-linejoin:miter;"/>
   </g>
   <g id="patch_7">
    <path clip-path="url(#p124b8dd147)" d="
M67.392 252
L70.74 252
L70.74 252
L67.392 252
z
" style="fill:#c8c8c8;stroke:#c8c8c8;stroke-linejoin:miter;"/>
   </g>
   <g id="patch_8">
    <path clip-path="url(#p124b8dd147)" d="
M70.74 252
L74.088 252
L74.088 252
L70.74 252
z
" style="fill:#c8c8c8;stroke:#c8c8c8;stroke-linejoin:miter;"/>
   </g>
   <g id="patch_9">
    <path clip-path="url(#p124b8dd147)" d="
M74.088 252
L77.436 252
L77.436 252
L74.088 252
z
" style="fill:#c8c8c8;stroke:#c8c8c8;stroke-linejoin:miter;"/>
   </g>
   <g id="patch_10">
    <path clip-path="url(#p124b8dd147)" d="
M77.436 252
L80.784 252
L80.784 252
L77.436 252
z
" style="fill:#c8c8c8;stroke:#c8c8c8;stroke-linejoin:miter;"/>
   </g>
   <g id="patch_11">
    <path clip-path="url(#p124b8dd147)" d="
M80.784 252
L84.132 252
L84.132 252
L80.784 252
z
" style="fill:#c8c8c8;stroke:#c8c8c8;stroke-linejoin:miter;"/>
   </g>
   <g id="patch_12">
    <path clip-path="url(#p124b8dd147)" d="
M84.132 252
L87.48 252
L87.48 252
L84.132 252
z
" style="fill:#c8c8c8;stroke:#c8c8c8;stroke-linejoin:miter;"/>
   </g>
   <g id="patch_13">
    <path clip-path="url(#p124b8dd147)" d="
M87.48 252
L90.828 252
L90.828 252
L87.48 252
z
" style="fill:#c8c8c8;stroke:#c8c8c8;stroke-linejoin:miter;"/>
   </g>
   <g id="patch_14">
    <path clip-path="url(#p124b8dd147)" d="
M90.828 252
L94.176 252
L94.176 249.272
L90.828 249.272
z
" style="fill:#c8c8c8;stroke:#c8c8c8;stroke-linejoin:miter;"/>
   </g>
   <g id="patch_15">
    <path clip-path="url(#p124b8dd147)" d="
M94.176 252
L97.524 252
L97.524 252
L94.176 252
z
" style="fill:#c8c8c8;stroke:#c8c8c8;stroke-linejoin:miter;"/>
   </g>
   <g id="patch_16">
    <path clip-path="url(#p124b8dd147)" d="
M97.524 252
L100.872 252
L100.872 252
L97.524 252
z
" style="fill:#c8c8c8;stroke:#c8c8c8;stroke-linejoin:miter;"/>
   </g>
   <g id="patch_17">
    <path clip-path="url(#p124b8dd147)" d="
M100.872 252
L104.22 252
L104.22 252
L100.872 252
z
" style="fill:#c8c8c8;stroke:#c8c8c8;stroke-linejoin:miter;"/>
   </g>
   <g id="patch_18">
    <path clip-path="url(#p124b8dd147)" d="
M104.22 252
L107.568 252
L107.568 252
L104.22 252
z
" style="fill:#c8c8c8;stroke:#c8c8c8;stroke-linejoin:miter;"/>
   </g>
   <g id="patch_19">
    <path clip-path="url(#p124b8dd147)" d="
M107.568 252
L110.916 252
L110.916 252
L107.568 252
z
" style="fill:#c8c8c8;stroke:#c8c8c8;stroke-linejoin:miter;"/>
   </g>
   <g id="patch_20">
    <path clip-path="url(#p124b8dd147)" d="
M110.916 252
L114.264 252
L114.264 252
L110.916 252
z
" style="fill:#c8c8c8;stroke:#c8c8c8;stroke-linejoin:miter;"/>
   </g>
   <g id="patch_21">
    <path clip-path="url(#p124b8dd147)" d="
M114.264 252
L117.612 252
L117.612 252
L114.264 252
z
" style="fill:#c8c8c8;stroke:#c8c8c8;stroke-linejoin:miter;"/>
   </g>
   <g id="patch_22">
    <path clip-path="url(#p124b8dd147)" d="
M117.612 252
L120.96 252
L120.96 252
L117.612 252
z
" style="fill:#c8c8c8;stroke:#c8c8c8;stroke-linejoin:miter;"/>
   </g>
   <g id="patch_23">
    <path clip-path="url(#p124b8dd147)" d="
M120.96 252
L124.308 252
L124.308 252
L120.96 252
z
" style="fill:#c8c8c8;stroke:#c8c8c8;stroke-linejoin:miter;"/>
   </g>
   <g id="patch_24">
    <path clip-path="url(#p124b8dd147)" d="
M124.308 252
L127.656 252
L127.656 252
L124.308 252
z
" style="fill:#c8c8c8;stroke:#c8c8c8;stroke-linejoin:miter;"/>
   </g>
   <g id="patch_25">
    <path clip-path="url(#p124b8dd147)" d="
M127.656 252
L131.004 252
L131.004 248.28
L127.656 248.28
z
" style="fill:#c8c8c8;stroke:#c8c8c8;stroke-linejoin:miter;"/>
   </g>
   <g id="patch_26">
    <path clip-path="url(#p124b8dd147)" d="
M131.004 252
L134.352 252
L134.352 252
L131.004 252
z
" style="fill:#c8c8c8;stroke:#c8c8c8;stroke-linejoin:miter;"/>
   </g>
   <g id="patch_27">
    <path clip-path="url(#p124b8dd147)" d="
M134.352 252
L137.7 252
L137.7 252
L134.352 252
z
" style="fill:#c8c8c8;stroke:#c8c8c8;stroke-linejoin:miter;"/>
   </g>
   <g id="patch_28">
    <path clip-path="url(#p124b8dd147)" d="
M137.7 252
L141.048 252
L141.048 252
L137.7 252
z
" style="fill:#c8c8c8;stroke:#c8c8c8;stroke-linejoin:miter;"/>
   </g>
   <g id="patch_29">
    <path clip-path="url(#p124b8dd147)" d="
M141.048 252
L144.396 252
L144.396 252
L141.048 252
z
" style="fill:#c8c8c8;stroke:#c8c8c8;stroke-linejoin:miter;"/>
   </g>
   <g id="patch_30">
    <path clip-path="url(#p124b8dd147)" d="
M144.396 252
L147.744 252
L147.744 252
L144.396 252
z
" style="fill:#c8c8c8;stroke:#c8c8c8;stroke-linejoin:miter;"/>
   </g>
   <g id="patch_31">
    <path clip-path="url(#p124b8dd147)" d="
M147.744 252
L151.092 252
L151.092 252
L147.744 252
z
" style="fill:#c8c8c8;stroke:#c8c8c8;stroke-linejoin:miter;"/>
   </g>
   <g id="patch_32">
    <path clip-path="url(#p124b8dd147)" d="
M151.092 252
L154.44 252
L154.44 252
L151.092 252
z
" style="fill:#c8c8c8;stroke:#c8c8c8;stroke-linejoin:miter;"/>
   </g>
   <g id="patch_33">
    <path clip-path="url(#p124b8dd147)" d="
M154.44 252
L157.788 252
L157.788 252
L154.44 252
z
" style="fill:#c8c8c8;stroke:#c8c8c8;stroke-linejoin:miter;"/>
   </g>
   <g id="patch_34">
    <path clip-path="url(#p124b8dd147)" d="
M157.788 252
L161.136 252
L161.136 252
L157.788 252
z
" style="fill:#c8c8c8;stroke:#c8c8c8;stroke-linejoin:miter;"/>
   </g>
   <g id="patch_35">
    <path clip-path="url(#p124b8dd147)" d="
M161.136 252
L164.484 252
L164.484 252
L161.136 252
z
" style="fill:#c8c8c8;stroke:#c8c8c8;stroke-linejoin:miter;"/>
   </g>
   <g id="patch_36">
    <path clip-path="url(#p124b8dd147)" d="
M164.484 252
L167.832 252
L167.832 249.768
L164.484 249.768
z
" style="fill:#c8c8c8;stroke:#c8c8c8;stroke-linejoin:miter;"/>
   </g>
   <g id="patch_37">
    <path clip-path="url(#p124b8dd147)" d="
M167.832 252
L171.18 252
L171.18 252
L167.832 252
z
" style="fill:#c8c8c8;stroke:#c8c8c8;stroke-linejoin:miter;"/>
   </g>
   <g id="patch_38">
    <path clip-path="url(#p124b8dd147)" d="
M171.18 252
L174.528 252
L174.528 252
L171.18 252
z
" style="fill:#c8c8c8;stroke:#c8c8c8;stroke-linejoin:miter;"/>
   </g>
   <g id="patch_39">
    <path clip-path="url(#p124b8dd147)" d="
M174.528 252
L177.876 252
L177.876 252
L174.528 252
z
" style="fill:#c8c8c8;stroke:#c8c8c8;stroke-linejoin:miter;"/>
   </g>
   <g id="patch_40">
    <path clip-path="url(#p124b8dd147)" d="
M177.876 252
L181.224 252
L181.224 252
L177.876 252
z
" style="fill:#c8c8c8;stroke:#c8c8c8;stroke-linejoin:miter;"/>
   </g>
   <g id="patch_41">
    <path clip-path="url(#p124b8dd147)" d="
M181.224 252
L184.572 252
L184.572 252
L181.224 252
z
" style="fill:#c8c8c8;stroke:#c8c8c8;stroke-linejoin:miter;"/>
   </g>
   <g id="patch_42">
    <path clip-path="url(#p124b8dd147)" d="
M184.572 252
L187.92 252
L187.92 252
L184.572 252
z
" style="fill:#c8c8c8;stroke:#c8c8c8;stroke-linejoin:miter;"/>
   </g>
   <g id="patch_43">
    <path clip-path="url(#p124b8dd147)" d="
M187.92 252
L191.268 252
L191.268 252
L187.92 252
z
" style="fill:#c8c8c8;stroke:#c8c8c8;stroke-linejoin:miter;"/>
   </g>
   <g id="patch_44">
    <path clip-path="url(#p124b8dd147)" d="
M191.268 252
L194.616 252
L194.616 252
L191.268 252
z
" style="fill:#c8c8c8;stroke:#c8c8c8;stroke-linejoin:miter;"/>
   </g>
   <g id="patch_45">
    <path clip-path="url(#p124b8dd147)" d="
M194.616 252
L197.964 252
L197.964 252
L194.616 252
z
" style="fill:#c8c8c8;stroke:#c8c8c8;stroke-linejoin:miter;"/>
   </g>
   <g id="patch_46">
    <path clip-path="url(#p124b8dd147)" d="
M197.964 252
L201.312 252
L201.312 252
L197.964 252
z
" style="fill:#c8c8c8;stroke:#c8c8c8;stroke-linejoin:miter;"/>
   </g>
   <g id="patch_47">
    <path clip-path="url(#p124b8dd147)" d="
M201.312 252
L204.66 252
L204.66 249.768
L201.312 249.768
z
" style="fill:#c8c8c8;stroke:#c8c8c8;stroke-linejoin:miter;"/>
   </g>
   <g id="patch_48">
    <path clip-path="url(#p124b8dd147)" d="
M204.66 252
L208.008 252
L208.008 252
L204.66 252
z
" style="fill:#c8c8c8;stroke:#c8c8c8;stroke-linejoin:miter;"/>
   </g>
   <g id="patch_49">
    <path clip-path="url(#p124b8dd147)" d="
M208.008 252
L211.356 252
L211.356 252
L208.008 252
z
" style="fill:#c8c8c8;stroke:#c8c8c8;stroke-linejoin:miter;"/>
   </g>
   <g id="patch_50">
    <path clip-path="url(#p124b8dd147)" d="
M211.356 252
L214.704 252
L214.704 252
L211.356 252
z
" style="fill:#c8c8c8;stroke:#c8c8c8;stroke-linejoin:miter;"/>
   </g>
   <g id="patch_51">
    <path clip-path="url(#p124b8dd147)" d="
M214.704 252
L218.052 252
L218.052 252
L214.704 252
z
" style="fill:#c8c8c8;stroke:#c8c8c8;stroke-linejoin:miter;"/>
   </g>
   <g id="patch_52">
    <path clip-path="url(#p124b8dd147)" d="
M218.052 252
L221.4 252
L221.4 252
L218.052 252
z
" style="fill:#c8c8c8;stroke:#c8c8c8;stroke-linejoin:miter;"/>
   </g>
   <g id="patch_53">
    <path clip-path="url(#p124b8dd147)" d="
M221.4 252
L224.748 252
L224.748 252
L221.4 252
z
" style="fill:#c8c8c8;stroke:#c8c8c8;stroke-linejoin:miter;"/>
   </g>
   <g id="patch_54">
    <path clip-path="url(#p124b8dd147)" d="
M224.748 252
L228.096 252
L228.096 252
L224.748 252
z
" style="fill:#c8c8c8;stroke:#c8c8c8;stroke-linejoin:miter;"/>
   </g>
   <g id="patch_55">
    <path clip-path="url(#p124b8dd147)" d="
M228.096 252
L231.444 252
L231.444 252
L228.096 252
z
" style="fill:#c8c8c8;stroke:#c8c8c8;stroke-linejoin:miter;"/>
   </g>
   <g id="patch_56">
    <path clip-path="url(#p124b8dd147)" d="
M231.444 252
L234.792 252
L234.792 252
L231.444 252
z
" style="fill:#c8c8c8;stroke:#c8c8c8;stroke-linejoin:miter;"/>
   </g>
   <g id="patch_57">
    <path clip-path="url(#p124b8dd147)" d="
M234.792 252
L238.14 252
L238.14 252
L234.792 252
z
" style="fill:#c8c8c8;stroke:#c8c8c8;stroke-linejoin:miter;"/>
   </g>
   <g id="patch_58">
    <path clip-path="url(#p124b8dd147)" d="
M238.14 252
L241.488 252
L241.488 249.272
L238.14 249.272
z
" style="fill:#c8c8c8;stroke:#c8c8c8;stroke-linejoin:miter;"/>
   </g>
   <g id="patch_59">
    <path clip-path="url(#p124b8dd147)" d="
M241.488 252
L244.836 252
L244.836 252
L241.488 252
z
" style="fill:#c8c8c8;stroke:#c8c8c8;stroke-linejoin:miter;"/>
   </g>
   <g id="patch_60">
    <path clip-path="url(#p124b8dd147)" d="
M244.836 252
L248.184 252
L248.184 252
L244.836 252
z
" style="fill:#c8c8c8;stroke:#c8c8c8;stroke-linejoin:miter;"/>
   </g>
   <g id="patch_61">
    <path clip-path="url(#p124b8dd147)" d="
M248.184 252
L251.532 252
L251.532 252
L248.184 252
z
" style="fill:#c8c8c8;stroke:#c8c8c8;stroke-linejoin:miter;"/>
   </g>
   <g id="patch_62">
    <path clip-path="url(#p124b8dd147)" d="
M251.532 252
L254.88 252
L254.88 252
L251.532 252
z
" style="fill:#c8c8c8;stroke:#c8c8c8;stroke-linejoin:miter;"/>
   </g>
   <g id="patch_63">
    <path clip-path="url(#p124b8dd147)" d="
M254.88 252
L258.228 252
L258.228 252
L254.88 252
z
" style="fill:#c8c8c8;stroke:#c8c8c8;stroke-linejoin:miter;"/>
   </g>
   <g id="patch_64">
    <path clip-path="url(#p124b8dd147)" d="
M258.228 252
L261.576 252
L261.576 252
L258.228 252
z
" style="fill:#c8c8c8;stroke:#c8c8c8;stroke-linejoin:miter;"/>
   </g>
   <g id="patch_65">
    <path clip-path="url(#p124b8dd147)" d="
M261.576 252
L264.924 252
L264.924 252
L261.576 252
z
" style="fill:#c8c8c8;stroke:#c8c8c8;stroke-linejoin:miter;"/>
   </g>
   <g id="patch_66">
    <path clip-path="url(#p124b8dd147)" d="
M264.924 252
L268.272 252
L268.272 252
L264.924 252
z
" style="fill:#c8c8c8;stroke:#c8c8c8;stroke-linejoin:miter;"/>
   </g>
   <g id="patch_67">
    <path clip-path="url(#p124b8dd147)" d="
M268.272 252
L271.62 252
L271.62 252
L268.272 252
z
" style="fill:#c8c8c8;stroke:#c8c8c8;stroke-linejoin:miter;"/>
   </g>
   <g id="patch_68">
    <path clip-path="url(#p124b8dd147)" d="
M271.62 252
L274.968 252
L274.968 252
L271.62 252
z
" style="fill:#c8c8c8;stroke:#c8c8c8;stroke-linejoin:miter;"/>
   </g>
   <g id="patch_69">
    <path clip-path="url(#p124b8dd147)" d="
M274.968 252
L278.316 252
L278.316 248.528
L274.968 248.528
z
" style="fill:#c8c8c8;stroke:#c8c8c8;stroke-linejoin:miter;"/>
   </g>
   <g id="patch_70">
    <path clip-path="url(#p124b8dd147)" d="
M278.316 252
L281.664 252
L281.664 252
L278.316 252
z
" style="fill:#c8c8c8;stroke:#c8c8c8;stroke-linejoin:miter;"/>
   </g>
   <g id="patch_71">
    <path clip-path="url(#p124b8dd147)" d="
M281.664 252
L285.012 252
L285.012 252
L281.664 252
z
" style="fill:#c8c8c8;stroke:#c8c8c8;stroke-linejoin:miter;"/>
   </g>
   <g id="patch_72">
    <path clip-path="url(#p124b8dd147)" d="
M285.012 252
L288.36 252
L288.36 252
L285.012 252
z
" style="fill:#c8c8c8;stroke:#c8c8c8;stroke-linejoin:miter;"/>
   </g>
   <g id="patch_73">
    <path clip-path="url(#p124b8dd147)" d="
M288.36 252
L291.708 252
L291.708 252
L288.36 252
z
" style="fill:#c8c8c8;stroke:#c8c8c8;stroke-linejoin:miter;"/>
   </g>
   <g id="patch_74">
    <path clip-path="url(#p124b8dd147)" d="
M291.708 252
L295.056 252
L295.056 252
L291.708 252
z
" style="fill:#c8c8c8;stroke:#c8c8c8;stroke-linejoin:miter;"/>
   </g>
   <g id="patch_75">
    <path clip-path="url(#p124b8dd147)" d="
M295.056 252
L298.404 252
L298.404 252
L295.056 252
z
" style="fill:#c8c8c8;stroke:#c8c8c8;stroke-linejoin:miter;"/>
   </g>
   <g id="patch_76">
    <path clip-path="url(#p124b8dd147)" d="
M298.404 252
L301.752 252
L301.752 252
L298.404 252
z
" style="fill:#c8c8c8;stroke:#c8c8c8;stroke-linejoin:miter;"/>
   </g>
   <g id="patch_77">
    <path clip-path="url(#p124b8dd147)" d="
M301.752 252
L305.1 252
L305.1 252
L301.752 252
z
" style="fill:#c8c8c8;stroke:#c8c8c8;stroke-linejoin:miter;"/>
   </g>
   <g id="patch_78">
    <path clip-path="url(#p124b8dd147)" d="
M305.1 252
L308.448 252
L308.448 252
L305.1 252
z
" style="fill:#c8c8c8;stroke:#c8c8c8;stroke-linejoin:miter;"/>
   </g>
   <g id="patch_79">
    <path clip-path="url(#p124b8dd147)" d="
M308.448 252
L311.796 252
L311.796 252
L308.448 252
z
" style="fill:#c8c8c8;stroke:#c8c8c8;stroke-linejoin:miter;"/>
   </g>
   <g id="patch_80">
    <path clip-path="url(#p124b8dd147)" d="
M311.796 252
L315.144 252
L315.144 248.032
L311.796 248.032
z
" style="fill:#c8c8c8;stroke:#c8c8c8;stroke-linejoin:miter;"/>
   </g>
   <g id="patch_81">
    <path clip-path="url(#p124b8dd147)" d="
M315.144 252
L318.492 252
L318.492 252
L315.144 252
z
" style="fill:#c8c8c8;stroke:#c8c8c8;stroke-linejoin:miter;"/>
   </g>
   <g id="patch_82">
    <path clip-path="url(#p124b8dd147)" d="
M318.492 252
L321.84 252
L321.84 252
L318.492 252
z
" style="fill:#c8c8c8;stroke:#c8c8c8;stroke-linejoin:miter;"/>
   </g>
   <g id="patch_83">
    <path clip-path="url(#p124b8dd147)" d="
M321.84 252
L325.188 252
L325.188 252
L321.84 252
z
" style="fill:#c8c8c8;stroke:#c8c8c8;stroke-linejoin:miter;"/>
   </g>
   <g id="patch_84">
    <path clip-path="url(#p124b8dd147)" d="
M325.188 252
L328.536 252
L328.536 252
L325.188 252
z
" style="fill:#c8c8c8;stroke:#c8c8c8;stroke-linejoin:miter;"/>
   </g>
   <g id="patch_85">
    <path clip-path="url(#p124b8dd147)" d="
M328.536 252
L331.884 252
L331.884 252
L328.536 252
z
" style="fill:#c8c8c8;stroke:#c8c8c8;stroke-linejoin:miter;"/>
   </g>
   <g id="patch_86">
    <path clip-path="url(#p124b8dd147)" d="
M331.884 252
L335.232 252
L335.232 252
L331.884 252
z
" style="fill:#c8c8c8;stroke:#c8c8c8;stroke-linejoin:miter;"/>
   </g>
   <g id="patch_87">
    <path clip-path="url(#p124b8dd147)" d="
M335.232 252
L338.58 252
L338.58 252
L335.232 252
z
" style="fill:#c8c8c8;stroke:#c8c8c8;stroke-linejoin:miter;"/>
   </g>
   <g id="patch_88">
    <path clip-path="url(#p124b8dd147)" d="
M338.58 252
L341.928 252
L341.928 252
L338.58 252
z
" style="fill:#c8c8c8;stroke:#c8c8c8;stroke-linejoin:miter;"/>
   </g>
   <g id="patch_89">
    <path clip-path="url(#p124b8dd147)" d="
M341.928 252
L345.276 252
L345.276 252
L341.928 252
z
" style="fill:#c8c8c8;stroke:#c8c8c8;stroke-linejoin:miter;"/>
   </g>
   <g id="patch_90">
    <path clip-path="url(#p124b8dd147)" d="
M345.276 252
L348.624 252
L348.624 252
L345.276 252
z
" style="fill:#c8c8c8;stroke:#c8c8c8;stroke-linejoin:miter;"/>
   </g>
   <g id="patch_91">
    <path clip-path="url(#p124b8dd147)" d="
M348.624 252
L351.972 252
L351.972 240.592
L348.624 240.592
z
" style="fill:#c8c8c8;stroke:#c8c8c8;stroke-linejoin:miter;"/>
   </g>
   <g id="patch_92">
    <path clip-path="url(#p124b8dd147)" d="
M351.972 252
L355.32 252
L355.32 252
L351.972 252
z
" style="fill:#c8c8c8;stroke:#c8c8c8;stroke-linejoin:miter;"/>
   </g>
   <g id="patch_93">
    <path clip-path="url(#p124b8dd147)" d="
M355.32 252
L358.668 252
L358.668 252
L355.32 252
z
" style="fill:#c8c8c8;stroke:#c8c8c8;stroke-linejoin:miter;"/>
   </g>
   <g id="patch_94">
    <path clip-path="url(#p124b8dd147)" d="
M358.668 252
L362.016 252
L362.016 252
L358.668 252
z
" style="fill:#c8c8c8;stroke:#c8c8c8;stroke-linejoin:miter;"/>
   </g>
   <g id="patch_95">
    <path clip-path="url(#p124b8dd147)" d="
M362.016 252
L365.364 252
L365.364 252
L362.016 252
z
" style="fill:#c8c8c8;stroke:#c8c8c8;stroke-linejoin:miter;"/>
   </g>
   <g id="patch_96">
    <path clip-path="url(#p124b8dd147)" d="
M365.364 252
L368.712 252
L368.712 252
L365.364 252
z
" style="fill:#c8c8c8;stroke:#c8c8c8;stroke-linejoin:miter;"/>
   </g>
   <g id="patch_97">
    <path clip-path="url(#p124b8dd147)" d="
M368.712 252
L372.06 252
L372.06 252
L368.712 252
z
" style="fill:#c8c8c8;stroke:#c8c8c8;stroke-linejoin:miter;"/>
   </g>
   <g id="patch_98">
    <path clip-path="url(#p124b8dd147)" d="
M372.06 252
L375.408 252
L375.408 252
L372.06 252
z
" style="fill:#c8c8c8;stroke:#c8c8c8;stroke-linejoin:miter;"/>
   </g>
   <g id="patch_99">
    <path clip-path="url(#p124b8dd147)" d="
M375.408 252
L378.756 252
L378.756 252
L375.408 252
z
" style="fill:#c8c8c8;stroke:#c8c8c8;stroke-linejoin:miter;"/>
   </g>
   <g id="patch_100">
    <path clip-path="url(#p124b8dd147)" d="
M378.756 252
L382.104 252
L382.104 252
L378.756 252
z
" style="fill:#c8c8c8;stroke:#c8c8c8;stroke-linejoin:miter;"/>
   </g>
   <g id="patch_101">
    <path clip-path="url(#p124b8dd147)" d="
M382.104 252
L385.452 252
L385.452 252
L382.104 252
z
" style="fill:#c8c8c8;stroke:#c8c8c8;stroke-linejoin:miter;"/>
   </g>
   <g id="patch_102">
    <path clip-path="url(#p124b8dd147)" d="
M385.452 252
L388.8 252
L388.8 85.468
L385.452 85.468
z
" style="fill:#c8c8c8;stroke:#c8c8c8;stroke-linejoin:miter;"/>
   </g>
   <g id="patch_103">
    <path d="
M54 252
L54 28.8" style="fill:none;stroke:#000000;stroke-linecap:square;stroke-linejoin:miter;"/>
   </g>
   <g id="patch_104">
    <path d="
M54 28.8
L388.8 28.8" style="fill:none;stroke:#000000;stroke-linecap:square;stroke-linejoin:miter;"/>
   </g>
   <g id="patch_105">
    <path d="
M388.8 252
L388.8 28.8" style="fill:none;stroke:#000000;stroke-linecap:square;stroke-linejoin:miter;"/>
   </g>
   <g id="patch_106">
    <path d="
M54 252
L388.8 252" style="fill:none;stroke:#000000;stroke-linecap:square;stroke-linejoin:miter;"/>
   </g>
   <g id="matplotlib.axis_1">
    <g id="xtick_1">
     <g id="line2d_1">
      <defs>
       <path d="
M0 0
L0 -4" id="mc7db9fdffb" style="stroke:#000000;stroke-width:0.5;"/>
      </defs>
      <g>
       <use style="stroke:#000000;stroke-width:0.5;" x="54.0" xlink:href="#mc7db9fdffb" y="252.0"/>
      </g>
     </g>
     <g id="line2d_2">
      <defs>
       <path d="
M0 0
L0 4" id="m5a7d422ac3" style="stroke:#000000;stroke-width:0.5;"/>
      </defs>
      <g>
       <use style="stroke:#000000;stroke-width:0.5;" x="54.0" xlink:href="#m5a7d422ac3" y="28.8"/>
      </g>
     </g>
     <g id="text_1">
      <!-- 0.0 -->
      <defs>
       <path d="
M31.7812 66.4062
Q24.1719 66.4062 20.3281 58.9062
Q16.5 51.4219 16.5 36.375
Q16.5 21.3906 20.3281 13.8906
Q24.1719 6.39062 31.7812 6.39062
Q39.4531 6.39062 43.2812 13.8906
Q47.125 21.3906 47.125 36.375
Q47.125 51.4219 43.2812 58.9062
Q39.4531 66.4062 31.7812 66.4062
M31.7812 74.2188
Q44.0469 74.2188 50.5156 64.5156
Q56.9844 54.8281 56.9844 36.375
Q56.9844 17.9688 50.5156 8.26562
Q44.0469 -1.42188 31.7812 -1.42188
Q19.5312 -1.42188 13.0625 8.26562
Q6.59375 17.9688 6.59375 36.375
Q6.59375 54.8281 13.0625 64.5156
Q19.5312 74.2188 31.7812 74.2188" id="BitstreamVeraSans-Roman-30"/>
       <path d="
M10.6875 12.4062
L21 12.4062
L21 0
L10.6875 0
z
" id="BitstreamVeraSans-Roman-2e"/>
      </defs>
      <g transform="translate(46.71015625 263.5984375)scale(0.1 -0.1)">
       <use xlink:href="#BitstreamVeraSans-Roman-30"/>
       <use x="63.623046875" xlink:href="#BitstreamVeraSans-Roman-2e"/>
       <use x="95.41015625" xlink:href="#BitstreamVeraSans-Roman-30"/>
      </g>
     </g>
    </g>
    <g id="xtick_2">
     <g id="line2d_3">
      <g>
       <use style="stroke:#000000;stroke-width:0.5;" x="120.96" xlink:href="#mc7db9fdffb" y="252.0"/>
      </g>
     </g>
     <g id="line2d_4">
      <g>
       <use style="stroke:#000000;stroke-width:0.5;" x="120.96" xlink:href="#m5a7d422ac3" y="28.8"/>
      </g>
     </g>
     <g id="text_2">
      <!-- 0.2 -->
      <defs>
       <path d="
M19.1875 8.29688
L53.6094 8.29688
L53.6094 0
L7.32812 0
L7.32812 8.29688
Q12.9375 14.1094 22.625 23.8906
Q32.3281 33.6875 34.8125 36.5312
Q39.5469 41.8438 41.4219 45.5312
Q43.3125 49.2188 43.3125 52.7812
Q43.3125 58.5938 39.2344 62.25
Q35.1562 65.9219 28.6094 65.9219
Q23.9688 65.9219 18.8125 64.3125
Q13.6719 62.7031 7.8125 59.4219
L7.8125 69.3906
Q13.7656 71.7812 18.9375 73
Q24.125 74.2188 28.4219 74.2188
Q39.75 74.2188 46.4844 68.5469
Q53.2188 62.8906 53.2188 53.4219
Q53.2188 48.9219 51.5312 44.8906
Q49.8594 40.875 45.4062 35.4062
Q44.1875 33.9844 37.6406 27.2188
Q31.1094 20.4531 19.1875 8.29688" id="BitstreamVeraSans-Roman-32"/>
      </defs>
      <g transform="translate(113.83890625 263.5984375)scale(0.1 -0.1)">
       <use xlink:href="#BitstreamVeraSans-Roman-30"/>
       <use x="63.623046875" xlink:href="#BitstreamVeraSans-Roman-2e"/>
       <use x="95.41015625" xlink:href="#BitstreamVeraSans-Roman-32"/>
      </g>
     </g>
    </g>
    <g id="xtick_3">
     <g id="line2d_5">
      <g>
       <use style="stroke:#000000;stroke-width:0.5;" x="187.92" xlink:href="#mc7db9fdffb" y="252.0"/>
      </g>
     </g>
     <g id="line2d_6">
      <g>
       <use style="stroke:#000000;stroke-width:0.5;" x="187.92" xlink:href="#m5a7d422ac3" y="28.8"/>
      </g>
     </g>
     <g id="text_3">
      <!-- 0.4 -->
      <defs>
       <path d="
M37.7969 64.3125
L12.8906 25.3906
L37.7969 25.3906
z

M35.2031 72.9062
L47.6094 72.9062
L47.6094 25.3906
L58.0156 25.3906
L58.0156 17.1875
L47.6094 17.1875
L47.6094 0
L37.7969 0
L37.7969 17.1875
L4.89062 17.1875
L4.89062 26.7031
z
" id="BitstreamVeraSans-Roman-34"/>
      </defs>
      <g transform="translate(180.57859375 263.5984375)scale(0.1 -0.1)">
       <use xlink:href="#BitstreamVeraSans-Roman-30"/>
       <use x="63.623046875" xlink:href="#BitstreamVeraSans-Roman-2e"/>
       <use x="95.41015625" xlink:href="#BitstreamVeraSans-Roman-34"/>
      </g>
     </g>
    </g>
    <g id="xtick_4">
     <g id="line2d_7">
      <g>
       <use style="stroke:#000000;stroke-width:0.5;" x="254.88" xlink:href="#mc7db9fdffb" y="252.0"/>
      </g>
     </g>
     <g id="line2d_8">
      <g>
       <use style="stroke:#000000;stroke-width:0.5;" x="254.88" xlink:href="#m5a7d422ac3" y="28.8"/>
      </g>
     </g>
     <g id="text_4">
      <!-- 0.6 -->
      <defs>
       <path d="
M33.0156 40.375
Q26.375 40.375 22.4844 35.8281
Q18.6094 31.2969 18.6094 23.3906
Q18.6094 15.5312 22.4844 10.9531
Q26.375 6.39062 33.0156 6.39062
Q39.6562 6.39062 43.5312 10.9531
Q47.4062 15.5312 47.4062 23.3906
Q47.4062 31.2969 43.5312 35.8281
Q39.6562 40.375 33.0156 40.375
M52.5938 71.2969
L52.5938 62.3125
Q48.875 64.0625 45.0938 64.9844
Q41.3125 65.9219 37.5938 65.9219
Q27.8281 65.9219 22.6719 59.3281
Q17.5312 52.7344 16.7969 39.4062
Q19.6719 43.6562 24.0156 45.9219
Q28.375 48.1875 33.5938 48.1875
Q44.5781 48.1875 50.9531 41.5156
Q57.3281 34.8594 57.3281 23.3906
Q57.3281 12.1562 50.6875 5.35938
Q44.0469 -1.42188 33.0156 -1.42188
Q20.3594 -1.42188 13.6719 8.26562
Q6.98438 17.9688 6.98438 36.375
Q6.98438 53.6562 15.1875 63.9375
Q23.3906 74.2188 37.2031 74.2188
Q40.9219 74.2188 44.7031 73.4844
Q48.4844 72.75 52.5938 71.2969" id="BitstreamVeraSans-Roman-36"/>
      </defs>
      <g transform="translate(247.57296875 263.5984375)scale(0.1 -0.1)">
       <use xlink:href="#BitstreamVeraSans-Roman-30"/>
       <use x="63.623046875" xlink:href="#BitstreamVeraSans-Roman-2e"/>
       <use x="95.41015625" xlink:href="#BitstreamVeraSans-Roman-36"/>
      </g>
     </g>
    </g>
    <g id="xtick_5">
     <g id="line2d_9">
      <g>
       <use style="stroke:#000000;stroke-width:0.5;" x="321.84" xlink:href="#mc7db9fdffb" y="252.0"/>
      </g>
     </g>
     <g id="line2d_10">
      <g>
       <use style="stroke:#000000;stroke-width:0.5;" x="321.84" xlink:href="#m5a7d422ac3" y="28.8"/>
      </g>
     </g>
     <g id="text_5">
      <!-- 0.8 -->
      <defs>
       <path d="
M31.7812 34.625
Q24.75 34.625 20.7188 30.8594
Q16.7031 27.0938 16.7031 20.5156
Q16.7031 13.9219 20.7188 10.1562
Q24.75 6.39062 31.7812 6.39062
Q38.8125 6.39062 42.8594 10.1719
Q46.9219 13.9688 46.9219 20.5156
Q46.9219 27.0938 42.8906 30.8594
Q38.875 34.625 31.7812 34.625
M21.9219 38.8125
Q15.5781 40.375 12.0312 44.7188
Q8.5 49.0781 8.5 55.3281
Q8.5 64.0625 14.7188 69.1406
Q20.9531 74.2188 31.7812 74.2188
Q42.6719 74.2188 48.875 69.1406
Q55.0781 64.0625 55.0781 55.3281
Q55.0781 49.0781 51.5312 44.7188
Q48 40.375 41.7031 38.8125
Q48.8281 37.1562 52.7969 32.3125
Q56.7812 27.4844 56.7812 20.5156
Q56.7812 9.90625 50.3125 4.23438
Q43.8438 -1.42188 31.7812 -1.42188
Q19.7344 -1.42188 13.25 4.23438
Q6.78125 9.90625 6.78125 20.5156
Q6.78125 27.4844 10.7812 32.3125
Q14.7969 37.1562 21.9219 38.8125
M18.3125 54.3906
Q18.3125 48.7344 21.8438 45.5625
Q25.3906 42.3906 31.7812 42.3906
Q38.1406 42.3906 41.7188 45.5625
Q45.3125 48.7344 45.3125 54.3906
Q45.3125 60.0625 41.7188 63.2344
Q38.1406 66.4062 31.7812 66.4062
Q25.3906 66.4062 21.8438 63.2344
Q18.3125 60.0625 18.3125 54.3906" id="BitstreamVeraSans-Roman-38"/>
      </defs>
      <g transform="translate(314.5603125 263.5984375)scale(0.1 -0.1)">
       <use xlink:href="#BitstreamVeraSans-Roman-30"/>
       <use x="63.623046875" xlink:href="#BitstreamVeraSans-Roman-2e"/>
       <use x="95.41015625" xlink:href="#BitstreamVeraSans-Roman-38"/>
      </g>
     </g>
    </g>
    <g id="xtick_6">
     <g id="line2d_11">
      <g>
       <use style="stroke:#000000;stroke-width:0.5;" x="388.8" xlink:href="#mc7db9fdffb" y="252.0"/>
      </g>
     </g>
     <g id="line2d_12">
      <g>
       <use style="stroke:#000000;stroke-width:0.5;" x="388.8" xlink:href="#m5a7d422ac3" y="28.8"/>
      </g>
     </g>
     <g id="text_6">
      <!-- 1.0 -->
      <defs>
       <path d="
M12.4062 8.29688
L28.5156 8.29688
L28.5156 63.9219
L10.9844 60.4062
L10.9844 69.3906
L28.4219 72.9062
L38.2812 72.9062
L38.2812 8.29688
L54.3906 8.29688
L54.3906 0
L12.4062 0
z
" id="BitstreamVeraSans-Roman-31"/>
      </defs>
      <g transform="translate(381.7296875 263.5984375)scale(0.1 -0.1)">
       <use xlink:href="#BitstreamVeraSans-Roman-31"/>
       <use x="63.623046875" xlink:href="#BitstreamVeraSans-Roman-2e"/>
       <use x="95.41015625" xlink:href="#BitstreamVeraSans-Roman-30"/>
      </g>
     </g>
    </g>
    <g id="text_7">
     <!-- all scores -->
     <defs>
      <path d="
M56.2031 29.5938
L56.2031 25.2031
L14.8906 25.2031
Q15.4844 15.9219 20.4844 11.0625
Q25.4844 6.20312 34.4219 6.20312
Q39.5938 6.20312 44.4531 7.46875
Q49.3125 8.73438 54.1094 11.2812
L54.1094 2.78125
Q49.2656 0.734375 44.1875 -0.34375
Q39.1094 -1.42188 33.8906 -1.42188
Q20.7969 -1.42188 13.1562 6.1875
Q5.51562 13.8125 5.51562 26.8125
Q5.51562 40.2344 12.7656 48.1094
Q20.0156 56 32.3281 56
Q43.3594 56 49.7812 48.8906
Q56.2031 41.7969 56.2031 29.5938
M47.2188 32.2344
Q47.125 39.5938 43.0938 43.9844
Q39.0625 48.3906 32.4219 48.3906
Q24.9062 48.3906 20.3906 44.1406
Q15.875 39.8906 15.1875 32.1719
z
" id="BitstreamVeraSans-Roman-65"/>
      <path d="
M48.7812 52.5938
L48.7812 44.1875
Q44.9688 46.2969 41.1406 47.3438
Q37.3125 48.3906 33.4062 48.3906
Q24.6562 48.3906 19.8125 42.8438
Q14.9844 37.3125 14.9844 27.2969
Q14.9844 17.2812 19.8125 11.7344
Q24.6562 6.20312 33.4062 6.20312
Q37.3125 6.20312 41.1406 7.25
Q44.9688 8.29688 48.7812 10.4062
L48.7812 2.09375
Q45.0156 0.34375 40.9844 -0.53125
Q36.9688 -1.42188 32.4219 -1.42188
Q20.0625 -1.42188 12.7812 6.34375
Q5.51562 14.1094 5.51562 27.2969
Q5.51562 40.6719 12.8594 48.3281
Q20.2188 56 33.0156 56
Q37.1562 56 41.1094 55.1406
Q45.0625 54.2969 48.7812 52.5938" id="BitstreamVeraSans-Roman-63"/>
      <path d="
M41.1094 46.2969
Q39.5938 47.1719 37.8125 47.5781
Q36.0312 48 33.8906 48
Q26.2656 48 22.1875 43.0469
Q18.1094 38.0938 18.1094 28.8125
L18.1094 0
L9.07812 0
L9.07812 54.6875
L18.1094 54.6875
L18.1094 46.1875
Q20.9531 51.1719 25.4844 53.5781
Q30.0312 56 36.5312 56
Q37.4531 56 38.5781 55.875
Q39.7031 55.7656 41.0625 55.5156
z
" id="BitstreamVeraSans-Roman-72"/>
      <path d="
M9.42188 75.9844
L18.4062 75.9844
L18.4062 0
L9.42188 0
z
" id="BitstreamVeraSans-Roman-6c"/>
      <path d="
M44.2812 53.0781
L44.2812 44.5781
Q40.4844 46.5312 36.375 47.5
Q32.2812 48.4844 27.875 48.4844
Q21.1875 48.4844 17.8438 46.4375
Q14.5 44.3906 14.5 40.2812
Q14.5 37.1562 16.8906 35.375
Q19.2812 33.5938 26.5156 31.9844
L29.5938 31.2969
Q39.1562 29.25 43.1875 25.5156
Q47.2188 21.7812 47.2188 15.0938
Q47.2188 7.46875 41.1875 3.01562
Q35.1562 -1.42188 24.6094 -1.42188
Q20.2188 -1.42188 15.4531 -0.5625
Q10.6875 0.296875 5.42188 2
L5.42188 11.2812
Q10.4062 8.6875 15.2344 7.39062
Q20.0625 6.10938 24.8125 6.10938
Q31.1562 6.10938 34.5625 8.28125
Q37.9844 10.4531 37.9844 14.4062
Q37.9844 18.0625 35.5156 20.0156
Q33.0625 21.9688 24.7031 23.7812
L21.5781 24.5156
Q13.2344 26.2656 9.51562 29.9062
Q5.8125 33.5469 5.8125 39.8906
Q5.8125 47.6094 11.2812 51.7969
Q16.75 56 26.8125 56
Q31.7812 56 36.1719 55.2656
Q40.5781 54.5469 44.2812 53.0781" id="BitstreamVeraSans-Roman-73"/>
      <path id="BitstreamVeraSans-Roman-20"/>
      <path d="
M34.2812 27.4844
Q23.3906 27.4844 19.1875 25
Q14.9844 22.5156 14.9844 16.5
Q14.9844 11.7188 18.1406 8.90625
Q21.2969 6.10938 26.7031 6.10938
Q34.1875 6.10938 38.7031 11.4062
Q43.2188 16.7031 43.2188 25.4844
L43.2188 27.4844
z

M52.2031 31.2031
L52.2031 0
L43.2188 0
L43.2188 8.29688
Q40.1406 3.32812 35.5469 0.953125
Q30.9531 -1.42188 24.3125 -1.42188
Q15.9219 -1.42188 10.9531 3.29688
Q6 8.01562 6 15.9219
Q6 25.1406 12.1719 29.8281
Q18.3594 34.5156 30.6094 34.5156
L43.2188 34.5156
L43.2188 35.4062
Q43.2188 41.6094 39.1406 45
Q35.0625 48.3906 27.6875 48.3906
Q23 48.3906 18.5469 47.2656
Q14.1094 46.1406 10.0156 43.8906
L10.0156 52.2031
Q14.9375 54.1094 19.5781 55.0469
Q24.2188 56 28.6094 56
Q40.4844 56 46.3438 49.8438
Q52.2031 43.7031 52.2031 31.2031" id="BitstreamVeraSans-Roman-61"/>
      <path d="
M30.6094 48.3906
Q23.3906 48.3906 19.1875 42.75
Q14.9844 37.1094 14.9844 27.2969
Q14.9844 17.4844 19.1562 11.8438
Q23.3438 6.20312 30.6094 6.20312
Q37.7969 6.20312 41.9844 11.8594
Q46.1875 17.5312 46.1875 27.2969
Q46.1875 37.0156 41.9844 42.7031
Q37.7969 48.3906 30.6094 48.3906
M30.6094 56
Q42.3281 56 49.0156 48.375
Q55.7188 40.7656 55.7188 27.2969
Q55.7188 13.875 49.0156 6.21875
Q42.3281 -1.42188 30.6094 -1.42188
Q18.8438 -1.42188 12.1719 6.21875
Q5.51562 13.875 5.51562 27.2969
Q5.51562 40.7656 12.1719 48.375
Q18.8438 56 30.6094 56" id="BitstreamVeraSans-Roman-6f"/>
     </defs>
     <g style="fill:#262626;" transform="translate(198.175 278.2765625)scale(0.1 -0.1)">
      <use xlink:href="#BitstreamVeraSans-Roman-61"/>
      <use x="61.279296875" xlink:href="#BitstreamVeraSans-Roman-6c"/>
      <use x="89.0625" xlink:href="#BitstreamVeraSans-Roman-6c"/>
      <use x="116.845703125" xlink:href="#BitstreamVeraSans-Roman-20"/>
      <use x="148.6328125" xlink:href="#BitstreamVeraSans-Roman-73"/>
      <use x="200.732421875" xlink:href="#BitstreamVeraSans-Roman-63"/>
      <use x="255.712890625" xlink:href="#BitstreamVeraSans-Roman-6f"/>
      <use x="316.89453125" xlink:href="#BitstreamVeraSans-Roman-72"/>
      <use x="355.7578125" xlink:href="#BitstreamVeraSans-Roman-65"/>
      <use x="417.28125" xlink:href="#BitstreamVeraSans-Roman-73"/>
     </g>
    </g>
   </g>
   <g id="matplotlib.axis_2">
    <g id="ytick_1">
     <g id="line2d_13">
      <defs>
       <path d="
M0 0
L4 0" id="md7965d1ba0" style="stroke:#000000;stroke-width:0.5;"/>
      </defs>
      <g>
       <use style="stroke:#000000;stroke-width:0.5;" x="54.0" xlink:href="#md7965d1ba0" y="252.0"/>
      </g>
     </g>
     <g id="line2d_14">
      <defs>
       <path d="
M0 0
L-4 0" id="md9a1c1a7cd" style="stroke:#000000;stroke-width:0.5;"/>
      </defs>
      <g>
       <use style="stroke:#000000;stroke-width:0.5;" x="388.8" xlink:href="#md9a1c1a7cd" y="252.0"/>
      </g>
     </g>
     <g id="text_8">
      <!-- 0 -->
      <g transform="translate(44.9609375 254.759375)scale(0.1 -0.1)">
       <use xlink:href="#BitstreamVeraSans-Roman-30"/>
      </g>
     </g>
    </g>
    <g id="ytick_2">
     <g id="line2d_15">
      <g>
       <use style="stroke:#000000;stroke-width:0.5;" x="54.0" xlink:href="#md7965d1ba0" y="227.2"/>
      </g>
     </g>
     <g id="line2d_16">
      <g>
       <use style="stroke:#000000;stroke-width:0.5;" x="388.8" xlink:href="#md9a1c1a7cd" y="227.2"/>
      </g>
     </g>
     <g id="text_9">
      <!-- 200 -->
      <g transform="translate(32.309375 229.959375)scale(0.1 -0.1)">
       <use xlink:href="#BitstreamVeraSans-Roman-32"/>
       <use x="63.623046875" xlink:href="#BitstreamVeraSans-Roman-30"/>
       <use x="127.24609375" xlink:href="#BitstreamVeraSans-Roman-30"/>
      </g>
     </g>
    </g>
    <g id="ytick_3">
     <g id="line2d_17">
      <g>
       <use style="stroke:#000000;stroke-width:0.5;" x="54.0" xlink:href="#md7965d1ba0" y="202.4"/>
      </g>
     </g>
     <g id="line2d_18">
      <g>
       <use style="stroke:#000000;stroke-width:0.5;" x="388.8" xlink:href="#md9a1c1a7cd" y="202.4"/>
      </g>
     </g>
     <g id="text_10">
      <!-- 400 -->
      <g transform="translate(32.065625 205.159375)scale(0.1 -0.1)">
       <use xlink:href="#BitstreamVeraSans-Roman-34"/>
       <use x="63.623046875" xlink:href="#BitstreamVeraSans-Roman-30"/>
       <use x="127.24609375" xlink:href="#BitstreamVeraSans-Roman-30"/>
      </g>
     </g>
    </g>
    <g id="ytick_4">
     <g id="line2d_19">
      <g>
       <use style="stroke:#000000;stroke-width:0.5;" x="54.0" xlink:href="#md7965d1ba0" y="177.6"/>
      </g>
     </g>
     <g id="line2d_20">
      <g>
       <use style="stroke:#000000;stroke-width:0.5;" x="388.8" xlink:href="#md9a1c1a7cd" y="177.6"/>
      </g>
     </g>
     <g id="text_11">
      <!-- 600 -->
      <g transform="translate(32.275 180.359375)scale(0.1 -0.1)">
       <use xlink:href="#BitstreamVeraSans-Roman-36"/>
       <use x="63.623046875" xlink:href="#BitstreamVeraSans-Roman-30"/>
       <use x="127.24609375" xlink:href="#BitstreamVeraSans-Roman-30"/>
      </g>
     </g>
    </g>
    <g id="ytick_5">
     <g id="line2d_21">
      <g>
       <use style="stroke:#000000;stroke-width:0.5;" x="54.0" xlink:href="#md7965d1ba0" y="152.8"/>
      </g>
     </g>
     <g id="line2d_22">
      <g>
       <use style="stroke:#000000;stroke-width:0.5;" x="388.8" xlink:href="#md9a1c1a7cd" y="152.8"/>
      </g>
     </g>
     <g id="text_12">
      <!-- 800 -->
      <g transform="translate(32.2546875 155.559375)scale(0.1 -0.1)">
       <use xlink:href="#BitstreamVeraSans-Roman-38"/>
       <use x="63.623046875" xlink:href="#BitstreamVeraSans-Roman-30"/>
       <use x="127.24609375" xlink:href="#BitstreamVeraSans-Roman-30"/>
      </g>
     </g>
    </g>
    <g id="ytick_6">
     <g id="line2d_23">
      <g>
       <use style="stroke:#000000;stroke-width:0.5;" x="54.0" xlink:href="#md7965d1ba0" y="128.0"/>
      </g>
     </g>
     <g id="line2d_24">
      <g>
       <use style="stroke:#000000;stroke-width:0.5;" x="388.8" xlink:href="#md9a1c1a7cd" y="128.0"/>
      </g>
     </g>
     <g id="text_13">
      <!-- 1000 -->
      <g transform="translate(26.3125 130.759375)scale(0.1 -0.1)">
       <use xlink:href="#BitstreamVeraSans-Roman-31"/>
       <use x="63.623046875" xlink:href="#BitstreamVeraSans-Roman-30"/>
       <use x="127.24609375" xlink:href="#BitstreamVeraSans-Roman-30"/>
       <use x="190.869140625" xlink:href="#BitstreamVeraSans-Roman-30"/>
      </g>
     </g>
    </g>
    <g id="ytick_7">
     <g id="line2d_25">
      <g>
       <use style="stroke:#000000;stroke-width:0.5;" x="54.0" xlink:href="#md7965d1ba0" y="103.2"/>
      </g>
     </g>
     <g id="line2d_26">
      <g>
       <use style="stroke:#000000;stroke-width:0.5;" x="388.8" xlink:href="#md9a1c1a7cd" y="103.2"/>
      </g>
     </g>
     <g id="text_14">
      <!-- 1200 -->
      <g transform="translate(26.3125 105.959375)scale(0.1 -0.1)">
       <use xlink:href="#BitstreamVeraSans-Roman-31"/>
       <use x="63.623046875" xlink:href="#BitstreamVeraSans-Roman-32"/>
       <use x="127.24609375" xlink:href="#BitstreamVeraSans-Roman-30"/>
       <use x="190.869140625" xlink:href="#BitstreamVeraSans-Roman-30"/>
      </g>
     </g>
    </g>
    <g id="ytick_8">
     <g id="line2d_27">
      <g>
       <use style="stroke:#000000;stroke-width:0.5;" x="54.0" xlink:href="#md7965d1ba0" y="78.4"/>
      </g>
     </g>
     <g id="line2d_28">
      <g>
       <use style="stroke:#000000;stroke-width:0.5;" x="388.8" xlink:href="#md9a1c1a7cd" y="78.4"/>
      </g>
     </g>
     <g id="text_15">
      <!-- 1400 -->
      <g transform="translate(26.3125 81.159375)scale(0.1 -0.1)">
       <use xlink:href="#BitstreamVeraSans-Roman-31"/>
       <use x="63.623046875" xlink:href="#BitstreamVeraSans-Roman-34"/>
       <use x="127.24609375" xlink:href="#BitstreamVeraSans-Roman-30"/>
       <use x="190.869140625" xlink:href="#BitstreamVeraSans-Roman-30"/>
      </g>
     </g>
    </g>
    <g id="ytick_9">
     <g id="line2d_29">
      <g>
       <use style="stroke:#000000;stroke-width:0.5;" x="54.0" xlink:href="#md7965d1ba0" y="53.6"/>
      </g>
     </g>
     <g id="line2d_30">
      <g>
       <use style="stroke:#000000;stroke-width:0.5;" x="388.8" xlink:href="#md9a1c1a7cd" y="53.6"/>
      </g>
     </g>
     <g id="text_16">
      <!-- 1600 -->
      <g transform="translate(26.3125 56.359375)scale(0.1 -0.1)">
       <use xlink:href="#BitstreamVeraSans-Roman-31"/>
       <use x="63.623046875" xlink:href="#BitstreamVeraSans-Roman-36"/>
       <use x="127.24609375" xlink:href="#BitstreamVeraSans-Roman-30"/>
       <use x="190.869140625" xlink:href="#BitstreamVeraSans-Roman-30"/>
      </g>
     </g>
    </g>
    <g id="ytick_10">
     <g id="line2d_31">
      <g>
       <use style="stroke:#000000;stroke-width:0.5;" x="54.0" xlink:href="#md7965d1ba0" y="28.8"/>
      </g>
     </g>
     <g id="line2d_32">
      <g>
       <use style="stroke:#000000;stroke-width:0.5;" x="388.8" xlink:href="#md9a1c1a7cd" y="28.8"/>
      </g>
     </g>
     <g id="text_17">
      <!-- 1800 -->
      <g transform="translate(26.3125 31.559375)scale(0.1 -0.1)">
       <use xlink:href="#BitstreamVeraSans-Roman-31"/>
       <use x="63.623046875" xlink:href="#BitstreamVeraSans-Roman-38"/>
       <use x="127.24609375" xlink:href="#BitstreamVeraSans-Roman-30"/>
       <use x="190.869140625" xlink:href="#BitstreamVeraSans-Roman-30"/>
      </g>
     </g>
    </g>
   </g>
  </g>
 </g>
 <defs>
  <clipPath id="p124b8dd147">
   <rect height="223.2" width="334.8" x="54.0" y="28.8"/>
  </clipPath>
 </defs>
</svg>
