<?xml version="1.0" encoding="utf-8" standalone="no"?>
<!DOCTYPE svg PUBLIC "-//W3C//DTD SVG 1.1//EN"
  "http://www.w3.org/Graphics/SVG/1.1/DTD/svg11.dtd">
<!-- Created with matplotlib (http://matplotlib.org/) -->
<svg height="288pt" version="1.1" viewBox="0 0 432 288" width="432pt" xmlns="http://www.w3.org/2000/svg" xmlns:xlink="http://www.w3.org/1999/xlink">
 <defs>
  <style type="text/css">
*{stroke-linecap:butt;stroke-linejoin:round;}
  </style>
 </defs>
 <g id="figure_1">
  <g id="patch_1">
   <path d="
M0 288
L432 288
L432 0
L0 0
z
" style="fill:#ffffff;"/>
  </g>
  <g id="axes_1">
   <g id="patch_2">
    <path d="
M54 252
L388.8 252
L388.8 28.8
L54 28.8
z
" style="fill:#ffffff;"/>
   </g>
   <g id="LineCollection_1">
    <defs>
     <path d="
M54 -47.16
L388.8 -47.16" id="C0_0_6a199aa244"/>
     <path d="
M54 -58.32
L388.8 -58.32" id="C0_1_588f8433d3"/>
     <path d="
M54 -69.48
L388.8 -69.48" id="C0_2_7772f9c2dd"/>
     <path d="
M54 -80.64
L388.8 -80.64" id="C0_3_b1f64ebb49"/>
     <path d="
M54 -91.8
L388.8 -91.8" id="C0_4_8730de45d9"/>
     <path d="
M54 -102.96
L388.8 -102.96" id="C0_5_99406a7aaf"/>
     <path d="
M54 -114.12
L388.8 -114.12" id="C0_6_7942048942"/>
     <path d="
M54 -125.28
L388.8 -125.28" id="C0_7_b82e38e395"/>
     <path d="
M54 -136.44
L388.8 -136.44" id="C0_8_d7e3e08fdd"/>
     <path d="
M54 -147.6
L388.8 -147.6" id="C0_9_6d2f357f65"/>
     <path d="
M54 -158.76
L388.8 -158.76" id="C0_a_ce0889cb45"/>
     <path d="
M54 -169.92
L388.8 -169.92" id="C0_b_7368e0d4c1"/>
     <path d="
M54 -181.08
L388.8 -181.08" id="C0_c_1a0fd29d1f"/>
     <path d="
M54 -192.24
L388.8 -192.24" id="C0_d_731fc594bd"/>
     <path d="
M54 -203.4
L388.8 -203.4" id="C0_e_e04fd99e81"/>
     <path d="
M54 -214.56
L388.8 -214.56" id="C0_f_4d21507c98"/>
     <path d="
M54 -225.72
L388.8 -225.72" id="C0_10_7c52cc8406"/>
     <path d="
M54 -236.88
L388.8 -236.88" id="C0_11_734107a64f"/>
     <path d="
M54 -248.04
L388.8 -248.04" id="C0_12_1dcff3af32"/>
    </defs>
    <g clip-path="url(#p124b8dd147)">
     <use style="fill:none;stroke:#262626;stroke-dasharray:1.000000,3.000000;stroke-dashoffset:0.0;stroke-width:0.5;" x="0.0" xlink:href="#C0_0_6a199aa244" y="288.0"/>
    </g>
    <g clip-path="url(#p124b8dd147)">
     <use style="fill:none;stroke:#262626;stroke-dasharray:1.000000,3.000000;stroke-dashoffset:0.0;stroke-width:0.5;" x="0.0" xlink:href="#C0_1_588f8433d3" y="288.0"/>
    </g>
    <g clip-path="url(#p124b8dd147)">
     <use style="fill:none;stroke:#262626;stroke-dasharray:1.000000,3.000000;stroke-dashoffset:0.0;stroke-width:0.5;" x="0.0" xlink:href="#C0_2_7772f9c2dd" y="288.0"/>
    </g>
    <g clip-path="url(#p124b8dd147)">
     <use style="fill:none;stroke:#262626;stroke-dasharray:1.000000,3.000000;stroke-dashoffset:0.0;stroke-width:0.5;" x="0.0" xlink:href="#C0_3_b1f64ebb49" y="288.0"/>
    </g>
    <g clip-path="url(#p124b8dd147)">
     <use style="fill:none;stroke:#262626;stroke-dasharray:1.000000,3.000000;stroke-dashoffset:0.0;stroke-width:0.5;" x="0.0" xlink:href="#C0_4_8730de45d9" y="288.0"/>
    </g>
    <g clip-path="url(#p124b8dd147)">
     <use style="fill:none;stroke:#262626;stroke-dasharray:1.000000,3.000000;stroke-dashoffset:0.0;stroke-width:0.5;" x="0.0" xlink:href="#C0_5_99406a7aaf" y="288.0"/>
    </g>
    <g clip-path="url(#p124b8dd147)">
     <use style="fill:none;stroke:#262626;stroke-dasharray:1.000000,3.000000;stroke-dashoffset:0.0;stroke-width:0.5;" x="0.0" xlink:href="#C0_6_7942048942" y="288.0"/>
    </g>
    <g clip-path="url(#p124b8dd147)">
     <use style="fill:none;stroke:#262626;stroke-dasharray:1.000000,3.000000;stroke-dashoffset:0.0;stroke-width:0.5;" x="0.0" xlink:href="#C0_7_b82e38e395" y="288.0"/>
    </g>
    <g clip-path="url(#p124b8dd147)">
     <use style="fill:none;stroke:#262626;stroke-dasharray:1.000000,3.000000;stroke-dashoffset:0.0;stroke-width:0.5;" x="0.0" xlink:href="#C0_8_d7e3e08fdd" y="288.0"/>
    </g>
    <g clip-path="url(#p124b8dd147)">
     <use style="fill:none;stroke:#262626;stroke-dasharray:1.000000,3.000000;stroke-dashoffset:0.0;stroke-width:0.5;" x="0.0" xlink:href="#C0_9_6d2f357f65" y="288.0"/>
    </g>
    <g clip-path="url(#p124b8dd147)">
     <use style="fill:none;stroke:#262626;stroke-dasharray:1.000000,3.000000;stroke-dashoffset:0.0;stroke-width:0.5;" x="0.0" xlink:href="#C0_a_ce0889cb45" y="288.0"/>
    </g>
    <g clip-path="url(#p124b8dd147)">
     <use style="fill:none;stroke:#262626;stroke-dasharray:1.000000,3.000000;stroke-dashoffset:0.0;stroke-width:0.5;" x="0.0" xlink:href="#C0_b_7368e0d4c1" y="288.0"/>
    </g>
    <g clip-path="url(#p124b8dd147)">
     <use style="fill:none;stroke:#262626;stroke-dasharray:1.000000,3.000000;stroke-dashoffset:0.0;stroke-width:0.5;" x="0.0" xlink:href="#C0_c_1a0fd29d1f" y="288.0"/>
    </g>
    <g clip-path="url(#p124b8dd147)">
     <use style="fill:none;stroke:#262626;stroke-dasharray:1.000000,3.000000;stroke-dashoffset:0.0;stroke-width:0.5;" x="0.0" xlink:href="#C0_d_731fc594bd" y="288.0"/>
    </g>
    <g clip-path="url(#p124b8dd147)">
     <use style="fill:none;stroke:#262626;stroke-dasharray:1.000000,3.000000;stroke-dashoffset:0.0;stroke-width:0.5;" x="0.0" xlink:href="#C0_e_e04fd99e81" y="288.0"/>
    </g>
    <g clip-path="url(#p124b8dd147)">
     <use style="fill:none;stroke:#262626;stroke-dasharray:1.000000,3.000000;stroke-dashoffset:0.0;stroke-width:0.5;" x="0.0" xlink:href="#C0_f_4d21507c98" y="288.0"/>
    </g>
    <g clip-path="url(#p124b8dd147)">
     <use style="fill:none;stroke:#262626;stroke-dasharray:1.000000,3.000000;stroke-dashoffset:0.0;stroke-width:0.5;" x="0.0" xlink:href="#C0_10_7c52cc8406" y="288.0"/>
    </g>
    <g clip-path="url(#p124b8dd147)">
     <use style="fill:none;stroke:#262626;stroke-dasharray:1.000000,3.000000;stroke-dashoffset:0.0;stroke-width:0.5;" x="0.0" xlink:href="#C0_11_734107a64f" y="288.0"/>
    </g>
    <g clip-path="url(#p124b8dd147)">
     <use style="fill:none;stroke:#262626;stroke-dasharray:1.000000,3.000000;stroke-dashoffset:0.0;stroke-width:0.5;" x="0.0" xlink:href="#C0_12_1dcff3af32" y="288.0"/>
    </g>
   </g>
   <g id="LineCollection_2">
    <defs>
     <path d="
M220.416 -47.16
L220.416 -248.04" id="C1_0_23141bb6fd"/>
    </defs>
    <g clip-path="url(#p124b8dd147)">
     <use style="fill:none;stroke:#262626;" x="0.0" xlink:href="#C1_0_23141bb6fd" y="288.0"/>
    </g>
   </g>
   <g id="LineCollection_3">
    <defs>
     <path d="
M144.393 -47.16
L144.393 -248.04" id="C2_0_1dec5aa0ed"/>
     <path d="
M296.439 -47.16
L296.439 -248.04" id="C2_1_b12cec1d76"/>
    </defs>
    <g clip-path="url(#p124b8dd147)">
     <use style="fill:none;stroke:#c8c8c8;" x="0.0" xlink:href="#C2_0_1dec5aa0ed" y="288.0"/>
    </g>
    <g clip-path="url(#p124b8dd147)">
     <use style="fill:none;stroke:#c8c8c8;" x="0.0" xlink:href="#C2_1_b12cec1d76" y="288.0"/>
    </g>
   </g>
   <g id="line2d_1">
    <defs>
     <path d="
M0 3
C0.795609 3 1.55874 2.6839 2.12132 2.12132
C2.6839 1.55874 3 0.795609 3 0
C3 -0.795609 2.6839 -1.55874 2.12132 -2.12132
C1.55874 -2.6839 0.795609 -3 0 -3
C-0.795609 -3 -1.55874 -2.6839 -2.12132 -2.12132
C-2.6839 -1.55874 -3 -0.795609 -3 0
C-3 0.795609 -2.6839 1.55874 -2.12132 2.12132
C-1.55874 2.6839 -0.795609 3 0 3
z
" id="m13eff84318" style="stroke:#000000;stroke-width:0.5;"/>
    </defs>
    <g clip-path="url(#p124b8dd147)">
     <use style="fill:#262626;opacity:0.75;stroke:#000000;stroke-width:0.5;" x="69.2181818182" xlink:href="#m13eff84318" y="240.84"/>
     <use style="fill:#262626;opacity:0.75;stroke:#000000;stroke-width:0.5;" x="133.273796791" xlink:href="#m13eff84318" y="229.68"/>
     <use style="fill:#262626;opacity:0.75;stroke:#000000;stroke-width:0.5;" x="145.209625668" xlink:href="#m13eff84318" y="218.52"/>
     <use style="fill:#262626;opacity:0.75;stroke:#000000;stroke-width:0.5;" x="154.161497326" xlink:href="#m13eff84318" y="207.36"/>
     <use style="fill:#262626;opacity:0.75;stroke:#000000;stroke-width:0.5;" x="165.500534759" xlink:href="#m13eff84318" y="196.2"/>
     <use style="fill:#262626;opacity:0.75;stroke:#000000;stroke-width:0.5;" x="176.839572193" xlink:href="#m13eff84318" y="185.04"/>
     <use style="fill:#262626;opacity:0.75;stroke:#000000;stroke-width:0.5;" x="185.990374332" xlink:href="#m13eff84318" y="173.88"/>
     <use style="fill:#262626;opacity:0.75;stroke:#000000;stroke-width:0.5;" x="203.695187166" xlink:href="#m13eff84318" y="162.72"/>
     <use style="fill:#262626;opacity:0.75;stroke:#000000;stroke-width:0.5;" x="205.087700535" xlink:href="#m13eff84318" y="151.56"/>
     <use style="fill:#262626;opacity:0.75;stroke:#000000;stroke-width:0.5;" x="209.862032086" xlink:href="#m13eff84318" y="140.4"/>
     <use style="fill:#262626;opacity:0.75;stroke:#000000;stroke-width:0.5;" x="224.185026738" xlink:href="#m13eff84318" y="129.24"/>
     <use style="fill:#262626;opacity:0.75;stroke:#000000;stroke-width:0.5;" x="233.534759358" xlink:href="#m13eff84318" y="118.08"/>
     <use style="fill:#262626;opacity:0.75;stroke:#000000;stroke-width:0.5;" x="236.319786096" xlink:href="#m13eff84318" y="106.92"/>
     <use style="fill:#262626;opacity:0.75;stroke:#000000;stroke-width:0.5;" x="259.395721925" xlink:href="#m13eff84318" y="95.76"/>
     <use style="fill:#262626;opacity:0.75;stroke:#000000;stroke-width:0.5;" x="269.939037433" xlink:href="#m13eff84318" y="84.6"/>
     <use style="fill:#262626;opacity:0.75;stroke:#000000;stroke-width:0.5;" x="278.493048128" xlink:href="#m13eff84318" y="73.44"/>
     <use style="fill:#262626;opacity:0.75;stroke:#000000;stroke-width:0.5;" x="312.510160428" xlink:href="#m13eff84318" y="62.28"/>
     <use style="fill:#262626;opacity:0.75;stroke:#000000;stroke-width:0.5;" x="351.102673797" xlink:href="#m13eff84318" y="51.12"/>
     <use style="fill:#262626;opacity:0.75;stroke:#000000;stroke-width:0.5;" x="373.581818182" xlink:href="#m13eff84318" y="39.96"/>
    </g>
   </g>
   <g id="matplotlib.axis_1">
    <g id="xtick_1">
     <g id="line2d_2">
      <defs>
       <path d="
M0 0
L0 -4" id="m51f51a7308" style="stroke:#262626;stroke-width:0.5;"/>
      </defs>
      <g>
       <use style="fill:#262626;stroke:#262626;stroke-width:0.5;" x="88.1165775401" xlink:href="#m51f51a7308" y="252.0"/>
      </g>
     </g>
     <g id="line2d_3">
      <defs>
       <path d="
M0 0
L0 4" id="m8f8b9df92f" style="stroke:#262626;stroke-width:0.5;"/>
      </defs>
      <g>
       <use style="fill:#262626;stroke:#262626;stroke-width:0.5;" x="88.1165775401" xlink:href="#m8f8b9df92f" y="28.8"/>
      </g>
     </g>
     <g id="text_1">
      <!-- 200 -->
      <defs>
       <path d="
M19.1875 8.29688
L53.6094 8.29688
L53.6094 0
L7.32812 0
L7.32812 8.29688
Q12.9375 14.1094 22.625 23.8906
Q32.3281 33.6875 34.8125 36.5312
Q39.5469 41.8438 41.4219 45.5312
Q43.3125 49.2188 43.3125 52.7812
Q43.3125 58.5938 39.2344 62.25
Q35.1562 65.9219 28.6094 65.9219
Q23.9688 65.9219 18.8125 64.3125
Q13.6719 62.7031 7.8125 59.4219
L7.8125 69.3906
Q13.7656 71.7812 18.9375 73
Q24.125 74.2188 28.4219 74.2188
Q39.75 74.2188 46.4844 68.5469
Q53.2188 62.8906 53.2188 53.4219
Q53.2188 48.9219 51.5312 44.8906
Q49.8594 40.875 45.4062 35.4062
Q44.1875 33.9844 37.6406 27.2188
Q31.1094 20.4531 19.1875 8.29688" id="BitstreamVeraSans-Roman-32"/>
       <path d="
M31.7812 66.4062
Q24.1719 66.4062 20.3281 58.9062
Q16.5 51.4219 16.5 36.375
Q16.5 21.3906 20.3281 13.8906
Q24.1719 6.39062 31.7812 6.39062
Q39.4531 6.39062 43.2812 13.8906
Q47.125 21.3906 47.125 36.375
Q47.125 51.4219 43.2812 58.9062
Q39.4531 66.4062 31.7812 66.4062
M31.7812 74.2188
Q44.0469 74.2188 50.5156 64.5156
Q56.9844 54.8281 56.9844 36.375
Q56.9844 17.9688 50.5156 8.26562
Q44.0469 -1.42188 31.7812 -1.42188
Q19.5312 -1.42188 13.0625 8.26562
Q6.59375 17.9688 6.59375 36.375
Q6.59375 54.8281 13.0625 64.5156
Q19.5312 74.2188 31.7812 74.2188" id="BitstreamVeraSans-Roman-30"/>
      </defs>
      <g style="fill:#262626;" transform="translate(79.2712650401 263.5984375)scale(0.1 -0.1)">
       <use xlink:href="#BitstreamVeraSans-Roman-32"/>
       <use x="63.623046875" xlink:href="#BitstreamVeraSans-Roman-30"/>
       <use x="127.24609375" xlink:href="#BitstreamVeraSans-Roman-30"/>
      </g>
     </g>
     <g id="text_2">
      <!-- 200 -->
      <g style="fill:#262626;" transform="translate(79.2712650401 22.7203125)scale(0.1 -0.1)">
       <use xlink:href="#BitstreamVeraSans-Roman-32"/>
       <use x="63.623046875" xlink:href="#BitstreamVeraSans-Roman-30"/>
       <use x="127.24609375" xlink:href="#BitstreamVeraSans-Roman-30"/>
      </g>
     </g>
    </g>
    <g id="xtick_2">
     <g id="line2d_4">
      <g>
       <use style="fill:#262626;stroke:#262626;stroke-width:0.5;" x="127.902673797" xlink:href="#m51f51a7308" y="252.0"/>
      </g>
     </g>
     <g id="line2d_5">
      <g>
       <use style="fill:#262626;stroke:#262626;stroke-width:0.5;" x="127.902673797" xlink:href="#m8f8b9df92f" y="28.8"/>
      </g>
     </g>
     <g id="text_3">
      <!-- 400 -->
      <defs>
       <path d="
M37.7969 64.3125
L12.8906 25.3906
L37.7969 25.3906
z

M35.2031 72.9062
L47.6094 72.9062
L47.6094 25.3906
L58.0156 25.3906
L58.0156 17.1875
L47.6094 17.1875
L47.6094 0
L37.7969 0
L37.7969 17.1875
L4.89062 17.1875
L4.89062 26.7031
z
" id="BitstreamVeraSans-Roman-34"/>
      </defs>
      <g style="fill:#262626;" transform="translate(118.935486297 263.5984375)scale(0.1 -0.1)">
       <use xlink:href="#BitstreamVeraSans-Roman-34"/>
       <use x="63.623046875" xlink:href="#BitstreamVeraSans-Roman-30"/>
       <use x="127.24609375" xlink:href="#BitstreamVeraSans-Roman-30"/>
      </g>
     </g>
     <g id="text_4">
      <!-- 400 -->
      <g style="fill:#262626;" transform="translate(118.935486297 22.7203125)scale(0.1 -0.1)">
       <use xlink:href="#BitstreamVeraSans-Roman-34"/>
       <use x="63.623046875" xlink:href="#BitstreamVeraSans-Roman-30"/>
       <use x="127.24609375" xlink:href="#BitstreamVeraSans-Roman-30"/>
      </g>
     </g>
    </g>
    <g id="xtick_3">
     <g id="line2d_6">
      <g>
       <use style="fill:#262626;stroke:#262626;stroke-width:0.5;" x="167.688770053" xlink:href="#m51f51a7308" y="252.0"/>
      </g>
     </g>
     <g id="line2d_7">
      <g>
       <use style="fill:#262626;stroke:#262626;stroke-width:0.5;" x="167.688770053" xlink:href="#m8f8b9df92f" y="28.8"/>
      </g>
     </g>
     <g id="text_5">
      <!-- 600 -->
      <defs>
       <path d="
M33.0156 40.375
Q26.375 40.375 22.4844 35.8281
Q18.6094 31.2969 18.6094 23.3906
Q18.6094 15.5312 22.4844 10.9531
Q26.375 6.39062 33.0156 6.39062
Q39.6562 6.39062 43.5312 10.9531
Q47.4062 15.5312 47.4062 23.3906
Q47.4062 31.2969 43.5312 35.8281
Q39.6562 40.375 33.0156 40.375
M52.5938 71.2969
L52.5938 62.3125
Q48.875 64.0625 45.0938 64.9844
Q41.3125 65.9219 37.5938 65.9219
Q27.8281 65.9219 22.6719 59.3281
Q17.5312 52.7344 16.7969 39.4062
Q19.6719 43.6562 24.0156 45.9219
Q28.375 48.1875 33.5938 48.1875
Q44.5781 48.1875 50.9531 41.5156
Q57.3281 34.8594 57.3281 23.3906
Q57.3281 12.1562 50.6875 5.35938
Q44.0469 -1.42188 33.0156 -1.42188
Q20.3594 -1.42188 13.6719 8.26562
Q6.98438 17.9688 6.98438 36.375
Q6.98438 53.6562 15.1875 63.9375
Q23.3906 74.2188 37.2031 74.2188
Q40.9219 74.2188 44.7031 73.4844
Q48.4844 72.75 52.5938 71.2969" id="BitstreamVeraSans-Roman-36"/>
      </defs>
      <g style="fill:#262626;" transform="translate(158.826270053 263.5984375)scale(0.1 -0.1)">
       <use xlink:href="#BitstreamVeraSans-Roman-36"/>
       <use x="63.623046875" xlink:href="#BitstreamVeraSans-Roman-30"/>
       <use x="127.24609375" xlink:href="#BitstreamVeraSans-Roman-30"/>
      </g>
     </g>
     <g id="text_6">
      <!-- 600 -->
      <g style="fill:#262626;" transform="translate(158.826270053 22.7203125)scale(0.1 -0.1)">
       <use xlink:href="#BitstreamVeraSans-Roman-36"/>
       <use x="63.623046875" xlink:href="#BitstreamVeraSans-Roman-30"/>
       <use x="127.24609375" xlink:href="#BitstreamVeraSans-Roman-30"/>
      </g>
     </g>
    </g>
    <g id="xtick_4">
     <g id="line2d_8">
      <g>
       <use style="fill:#262626;stroke:#262626;stroke-width:0.5;" x="207.47486631" xlink:href="#m51f51a7308" y="252.0"/>
      </g>
     </g>
     <g id="line2d_9">
      <g>
       <use style="fill:#262626;stroke:#262626;stroke-width:0.5;" x="207.47486631" xlink:href="#m8f8b9df92f" y="28.8"/>
      </g>
     </g>
     <g id="text_7">
      <!-- 800 -->
      <defs>
       <path d="
M31.7812 34.625
Q24.75 34.625 20.7188 30.8594
Q16.7031 27.0938 16.7031 20.5156
Q16.7031 13.9219 20.7188 10.1562
Q24.75 6.39062 31.7812 6.39062
Q38.8125 6.39062 42.8594 10.1719
Q46.9219 13.9688 46.9219 20.5156
Q46.9219 27.0938 42.8906 30.8594
Q38.875 34.625 31.7812 34.625
M21.9219 38.8125
Q15.5781 40.375 12.0312 44.7188
Q8.5 49.0781 8.5 55.3281
Q8.5 64.0625 14.7188 69.1406
Q20.9531 74.2188 31.7812 74.2188
Q42.6719 74.2188 48.875 69.1406
Q55.0781 64.0625 55.0781 55.3281
Q55.0781 49.0781 51.5312 44.7188
Q48 40.375 41.7031 38.8125
Q48.8281 37.1562 52.7969 32.3125
Q56.7812 27.4844 56.7812 20.5156
Q56.7812 9.90625 50.3125 4.23438
Q43.8438 -1.42188 31.7812 -1.42188
Q19.7344 -1.42188 13.25 4.23438
Q6.78125 9.90625 6.78125 20.5156
Q6.78125 27.4844 10.7812 32.3125
Q14.7969 37.1562 21.9219 38.8125
M18.3125 54.3906
Q18.3125 48.7344 21.8438 45.5625
Q25.3906 42.3906 31.7812 42.3906
Q38.1406 42.3906 41.7188 45.5625
Q45.3125 48.7344 45.3125 54.3906
Q45.3125 60.0625 41.7188 63.2344
Q38.1406 66.4062 31.7812 66.4062
Q25.3906 66.4062 21.8438 63.2344
Q18.3125 60.0625 18.3125 54.3906" id="BitstreamVeraSans-Roman-38"/>
      </defs>
      <g style="fill:#262626;" transform="translate(198.60221006 263.5984375)scale(0.1 -0.1)">
       <use xlink:href="#BitstreamVeraSans-Roman-38"/>
       <use x="63.623046875" xlink:href="#BitstreamVeraSans-Roman-30"/>
       <use x="127.24609375" xlink:href="#BitstreamVeraSans-Roman-30"/>
      </g>
     </g>
     <g id="text_8">
      <!-- 800 -->
      <g style="fill:#262626;" transform="translate(198.60221006 22.7203125)scale(0.1 -0.1)">
       <use xlink:href="#BitstreamVeraSans-Roman-38"/>
       <use x="63.623046875" xlink:href="#BitstreamVeraSans-Roman-30"/>
       <use x="127.24609375" xlink:href="#BitstreamVeraSans-Roman-30"/>
      </g>
     </g>
    </g>
    <g id="xtick_5">
     <g id="line2d_10">
      <g>
       <use style="fill:#262626;stroke:#262626;stroke-width:0.5;" x="247.260962567" xlink:href="#m51f51a7308" y="252.0"/>
      </g>
     </g>
     <g id="line2d_11">
      <g>
       <use style="fill:#262626;stroke:#262626;stroke-width:0.5;" x="247.260962567" xlink:href="#m8f8b9df92f" y="28.8"/>
      </g>
     </g>
     <g id="text_9">
      <!-- 1000 -->
      <defs>
       <path d="
M12.4062 8.29688
L28.5156 8.29688
L28.5156 63.9219
L10.9844 60.4062
L10.9844 69.3906
L28.4219 72.9062
L38.2812 72.9062
L38.2812 8.29688
L54.3906 8.29688
L54.3906 0
L12.4062 0
z
" id="BitstreamVeraSans-Roman-31"/>
      </defs>
      <g style="fill:#262626;" transform="translate(235.417212567 263.5984375)scale(0.1 -0.1)">
       <use xlink:href="#BitstreamVeraSans-Roman-31"/>
       <use x="63.623046875" xlink:href="#BitstreamVeraSans-Roman-30"/>
       <use x="127.24609375" xlink:href="#BitstreamVeraSans-Roman-30"/>
       <use x="190.869140625" xlink:href="#BitstreamVeraSans-Roman-30"/>
      </g>
     </g>
     <g id="text_10">
      <!-- 1000 -->
      <g style="fill:#262626;" transform="translate(235.417212567 22.7203125)scale(0.1 -0.1)">
       <use xlink:href="#BitstreamVeraSans-Roman-31"/>
       <use x="63.623046875" xlink:href="#BitstreamVeraSans-Roman-30"/>
       <use x="127.24609375" xlink:href="#BitstreamVeraSans-Roman-30"/>
       <use x="190.869140625" xlink:href="#BitstreamVeraSans-Roman-30"/>
      </g>
     </g>
    </g>
    <g id="xtick_6">
     <g id="line2d_12">
      <g>
       <use style="fill:#262626;stroke:#262626;stroke-width:0.5;" x="287.047058824" xlink:href="#m51f51a7308" y="252.0"/>
      </g>
     </g>
     <g id="line2d_13">
      <g>
       <use style="fill:#262626;stroke:#262626;stroke-width:0.5;" x="287.047058824" xlink:href="#m8f8b9df92f" y="28.8"/>
      </g>
     </g>
     <g id="text_11">
      <!-- 1200 -->
      <g style="fill:#262626;" transform="translate(275.203308824 263.5984375)scale(0.1 -0.1)">
       <use xlink:href="#BitstreamVeraSans-Roman-31"/>
       <use x="63.623046875" xlink:href="#BitstreamVeraSans-Roman-32"/>
       <use x="127.24609375" xlink:href="#BitstreamVeraSans-Roman-30"/>
       <use x="190.869140625" xlink:href="#BitstreamVeraSans-Roman-30"/>
      </g>
     </g>
     <g id="text_12">
      <!-- 1200 -->
      <g style="fill:#262626;" transform="translate(275.203308824 22.7203125)scale(0.1 -0.1)">
       <use xlink:href="#BitstreamVeraSans-Roman-31"/>
       <use x="63.623046875" xlink:href="#BitstreamVeraSans-Roman-32"/>
       <use x="127.24609375" xlink:href="#BitstreamVeraSans-Roman-30"/>
       <use x="190.869140625" xlink:href="#BitstreamVeraSans-Roman-30"/>
      </g>
     </g>
    </g>
    <g id="xtick_7">
     <g id="line2d_14">
      <g>
       <use style="fill:#262626;stroke:#262626;stroke-width:0.5;" x="326.83315508" xlink:href="#m51f51a7308" y="252.0"/>
      </g>
     </g>
     <g id="line2d_15">
      <g>
       <use style="fill:#262626;stroke:#262626;stroke-width:0.5;" x="326.83315508" xlink:href="#m8f8b9df92f" y="28.8"/>
      </g>
     </g>
     <g id="text_13">
      <!-- 1400 -->
      <g style="fill:#262626;" transform="translate(314.98940508 263.5984375)scale(0.1 -0.1)">
       <use xlink:href="#BitstreamVeraSans-Roman-31"/>
       <use x="63.623046875" xlink:href="#BitstreamVeraSans-Roman-34"/>
       <use x="127.24609375" xlink:href="#BitstreamVeraSans-Roman-30"/>
       <use x="190.869140625" xlink:href="#BitstreamVeraSans-Roman-30"/>
      </g>
     </g>
     <g id="text_14">
      <!-- 1400 -->
      <g style="fill:#262626;" transform="translate(314.98940508 22.7203125)scale(0.1 -0.1)">
       <use xlink:href="#BitstreamVeraSans-Roman-31"/>
       <use x="63.623046875" xlink:href="#BitstreamVeraSans-Roman-34"/>
       <use x="127.24609375" xlink:href="#BitstreamVeraSans-Roman-30"/>
       <use x="190.869140625" xlink:href="#BitstreamVeraSans-Roman-30"/>
      </g>
     </g>
    </g>
    <g id="xtick_8">
     <g id="line2d_16">
      <g>
       <use style="fill:#262626;stroke:#262626;stroke-width:0.5;" x="366.619251337" xlink:href="#m51f51a7308" y="252.0"/>
      </g>
     </g>
     <g id="line2d_17">
      <g>
       <use style="fill:#262626;stroke:#262626;stroke-width:0.5;" x="366.619251337" xlink:href="#m8f8b9df92f" y="28.8"/>
      </g>
     </g>
     <g id="text_15">
      <!-- 1600 -->
      <g style="fill:#262626;" transform="translate(354.775501337 263.5984375)scale(0.1 -0.1)">
       <use xlink:href="#BitstreamVeraSans-Roman-31"/>
       <use x="63.623046875" xlink:href="#BitstreamVeraSans-Roman-36"/>
       <use x="127.24609375" xlink:href="#BitstreamVeraSans-Roman-30"/>
       <use x="190.869140625" xlink:href="#BitstreamVeraSans-Roman-30"/>
      </g>
     </g>
     <g id="text_16">
      <!-- 1600 -->
      <g style="fill:#262626;" transform="translate(354.775501337 22.7203125)scale(0.1 -0.1)">
       <use xlink:href="#BitstreamVeraSans-Roman-31"/>
       <use x="63.623046875" xlink:href="#BitstreamVeraSans-Roman-36"/>
       <use x="127.24609375" xlink:href="#BitstreamVeraSans-Roman-30"/>
       <use x="190.869140625" xlink:href="#BitstreamVeraSans-Roman-30"/>
      </g>
     </g>
    </g>
    <g id="text_17">
     <!-- Length in sentences -->
     <defs>
      <path d="
M48.7812 52.5938
L48.7812 44.1875
Q44.9688 46.2969 41.1406 47.3438
Q37.3125 48.3906 33.4062 48.3906
Q24.6562 48.3906 19.8125 42.8438
Q14.9844 37.3125 14.9844 27.2969
Q14.9844 17.2812 19.8125 11.7344
Q24.6562 6.20312 33.4062 6.20312
Q37.3125 6.20312 41.1406 7.25
Q44.9688 8.29688 48.7812 10.4062
L48.7812 2.09375
Q45.0156 0.34375 40.9844 -0.53125
Q36.9688 -1.42188 32.4219 -1.42188
Q20.0625 -1.42188 12.7812 6.34375
Q5.51562 14.1094 5.51562 27.2969
Q5.51562 40.6719 12.8594 48.3281
Q20.2188 56 33.0156 56
Q37.1562 56 41.1094 55.1406
Q45.0625 54.2969 48.7812 52.5938" id="BitstreamVeraSans-Roman-63"/>
      <path d="
M18.3125 70.2188
L18.3125 54.6875
L36.8125 54.6875
L36.8125 47.7031
L18.3125 47.7031
L18.3125 18.0156
Q18.3125 11.3281 20.1406 9.42188
Q21.9688 7.51562 27.5938 7.51562
L36.8125 7.51562
L36.8125 0
L27.5938 0
Q17.1875 0 13.2344 3.875
Q9.28125 7.76562 9.28125 18.0156
L9.28125 47.7031
L2.6875 47.7031
L2.6875 54.6875
L9.28125 54.6875
L9.28125 70.2188
z
" id="BitstreamVeraSans-Roman-74"/>
      <path d="
M45.4062 27.9844
Q45.4062 37.75 41.375 43.1094
Q37.3594 48.4844 30.0781 48.4844
Q22.8594 48.4844 18.8281 43.1094
Q14.7969 37.75 14.7969 27.9844
Q14.7969 18.2656 18.8281 12.8906
Q22.8594 7.51562 30.0781 7.51562
Q37.3594 7.51562 41.375 12.8906
Q45.4062 18.2656 45.4062 27.9844
M54.3906 6.78125
Q54.3906 -7.17188 48.1875 -13.9844
Q42 -20.7969 29.2031 -20.7969
Q24.4688 -20.7969 20.2656 -20.0938
Q16.0625 -19.3906 12.1094 -17.9219
L12.1094 -9.1875
Q16.0625 -11.3281 19.9219 -12.3438
Q23.7812 -13.375 27.7812 -13.375
Q36.625 -13.375 41.0156 -8.76562
Q45.4062 -4.15625 45.4062 5.17188
L45.4062 9.625
Q42.625 4.78125 38.2812 2.39062
Q33.9375 0 27.875 0
Q17.8281 0 11.6719 7.65625
Q5.51562 15.3281 5.51562 27.9844
Q5.51562 40.6719 11.6719 48.3281
Q17.8281 56 27.875 56
Q33.9375 56 38.2812 53.6094
Q42.625 51.2188 45.4062 46.3906
L45.4062 54.6875
L54.3906 54.6875
z
" id="BitstreamVeraSans-Roman-67"/>
      <path d="
M9.8125 72.9062
L19.6719 72.9062
L19.6719 8.29688
L55.1719 8.29688
L55.1719 0
L9.8125 0
z
" id="BitstreamVeraSans-Roman-4c"/>
      <path id="BitstreamVeraSans-Roman-20"/>
      <path d="
M9.42188 54.6875
L18.4062 54.6875
L18.4062 0
L9.42188 0
z

M9.42188 75.9844
L18.4062 75.9844
L18.4062 64.5938
L9.42188 64.5938
z
" id="BitstreamVeraSans-Roman-69"/>
      <path d="
M56.2031 29.5938
L56.2031 25.2031
L14.8906 25.2031
Q15.4844 15.9219 20.4844 11.0625
Q25.4844 6.20312 34.4219 6.20312
Q39.5938 6.20312 44.4531 7.46875
Q49.3125 8.73438 54.1094 11.2812
L54.1094 2.78125
Q49.2656 0.734375 44.1875 -0.34375
Q39.1094 -1.42188 33.8906 -1.42188
Q20.7969 -1.42188 13.1562 6.1875
Q5.51562 13.8125 5.51562 26.8125
Q5.51562 40.2344 12.7656 48.1094
Q20.0156 56 32.3281 56
Q43.3594 56 49.7812 48.8906
Q56.2031 41.7969 56.2031 29.5938
M47.2188 32.2344
Q47.125 39.5938 43.0938 43.9844
Q39.0625 48.3906 32.4219 48.3906
Q24.9062 48.3906 20.3906 44.1406
Q15.875 39.8906 15.1875 32.1719
z
" id="BitstreamVeraSans-Roman-65"/>
      <path d="
M44.2812 53.0781
L44.2812 44.5781
Q40.4844 46.5312 36.375 47.5
Q32.2812 48.4844 27.875 48.4844
Q21.1875 48.4844 17.8438 46.4375
Q14.5 44.3906 14.5 40.2812
Q14.5 37.1562 16.8906 35.375
Q19.2812 33.5938 26.5156 31.9844
L29.5938 31.2969
Q39.1562 29.25 43.1875 25.5156
Q47.2188 21.7812 47.2188 15.0938
Q47.2188 7.46875 41.1875 3.01562
Q35.1562 -1.42188 24.6094 -1.42188
Q20.2188 -1.42188 15.4531 -0.5625
Q10.6875 0.296875 5.42188 2
L5.42188 11.2812
Q10.4062 8.6875 15.2344 7.39062
Q20.0625 6.10938 24.8125 6.10938
Q31.1562 6.10938 34.5625 8.28125
Q37.9844 10.4531 37.9844 14.4062
Q37.9844 18.0625 35.5156 20.0156
Q33.0625 21.9688 24.7031 23.7812
L21.5781 24.5156
Q13.2344 26.2656 9.51562 29.9062
Q5.8125 33.5469 5.8125 39.8906
Q5.8125 47.6094 11.2812 51.7969
Q16.75 56 26.8125 56
Q31.7812 56 36.1719 55.2656
Q40.5781 54.5469 44.2812 53.0781" id="BitstreamVeraSans-Roman-73"/>
      <path d="
M54.8906 33.0156
L54.8906 0
L45.9062 0
L45.9062 32.7188
Q45.9062 40.4844 42.875 44.3281
Q39.8438 48.1875 33.7969 48.1875
Q26.5156 48.1875 22.3125 43.5469
Q18.1094 38.9219 18.1094 30.9062
L18.1094 0
L9.07812 0
L9.07812 54.6875
L18.1094 54.6875
L18.1094 46.1875
Q21.3438 51.125 25.7031 53.5625
Q30.0781 56 35.7969 56
Q45.2188 56 50.0469 50.1719
Q54.8906 44.3438 54.8906 33.0156" id="BitstreamVeraSans-Roman-6e"/>
      <path d="
M54.8906 33.0156
L54.8906 0
L45.9062 0
L45.9062 32.7188
Q45.9062 40.4844 42.875 44.3281
Q39.8438 48.1875 33.7969 48.1875
Q26.5156 48.1875 22.3125 43.5469
Q18.1094 38.9219 18.1094 30.9062
L18.1094 0
L9.07812 0
L9.07812 75.9844
L18.1094 75.9844
L18.1094 46.1875
Q21.3438 51.125 25.7031 53.5625
Q30.0781 56 35.7969 56
Q45.2188 56 50.0469 50.1719
Q54.8906 44.3438 54.8906 33.0156" id="BitstreamVeraSans-Roman-68"/>
     </defs>
     <g style="fill:#262626;" transform="translate(171.175 278.2765625)scale(0.1 -0.1)">
      <use xlink:href="#BitstreamVeraSans-Roman-4c"/>
      <use x="53.962890625" xlink:href="#BitstreamVeraSans-Roman-65"/>
      <use x="115.486328125" xlink:href="#BitstreamVeraSans-Roman-6e"/>
      <use x="178.865234375" xlink:href="#BitstreamVeraSans-Roman-67"/>
      <use x="242.341796875" xlink:href="#BitstreamVeraSans-Roman-74"/>
      <use x="281.55078125" xlink:href="#BitstreamVeraSans-Roman-68"/>
      <use x="344.9296875" xlink:href="#BitstreamVeraSans-Roman-20"/>
      <use x="376.716796875" xlink:href="#BitstreamVeraSans-Roman-69"/>
      <use x="404.5" xlink:href="#BitstreamVeraSans-Roman-6e"/>
      <use x="467.87890625" xlink:href="#BitstreamVeraSans-Roman-20"/>
      <use x="499.666015625" xlink:href="#BitstreamVeraSans-Roman-73"/>
      <use x="551.765625" xlink:href="#BitstreamVeraSans-Roman-65"/>
      <use x="613.2890625" xlink:href="#BitstreamVeraSans-Roman-6e"/>
      <use x="676.66796875" xlink:href="#BitstreamVeraSans-Roman-74"/>
      <use x="715.876953125" xlink:href="#BitstreamVeraSans-Roman-65"/>
      <use x="777.400390625" xlink:href="#BitstreamVeraSans-Roman-6e"/>
      <use x="840.779296875" xlink:href="#BitstreamVeraSans-Roman-63"/>
      <use x="895.759765625" xlink:href="#BitstreamVeraSans-Roman-65"/>
      <use x="957.283203125" xlink:href="#BitstreamVeraSans-Roman-73"/>
     </g>
    </g>
   </g>
   <g id="matplotlib.axis_2">
    <g id="ytick_1">
     <g id="text_18">
      <!-- U-0011 -->
      <defs>
       <path d="
M4.89062 31.3906
L31.2031 31.3906
L31.2031 23.3906
L4.89062 23.3906
z
" id="BitstreamVeraSans-Roman-2d"/>
       <path d="
M8.6875 72.9062
L18.6094 72.9062
L18.6094 28.6094
Q18.6094 16.8906 22.8438 11.7344
Q27.0938 6.59375 36.625 6.59375
Q46.0938 6.59375 50.3438 11.7344
Q54.5938 16.8906 54.5938 28.6094
L54.5938 72.9062
L64.5 72.9062
L64.5 27.3906
Q64.5 13.1406 57.4375 5.85938
Q50.3906 -1.42188 36.625 -1.42188
Q22.7969 -1.42188 15.7344 5.85938
Q8.6875 13.1406 8.6875 27.3906
z
" id="BitstreamVeraSans-Roman-55"/>
      </defs>
      <g style="fill:#262626;" transform="translate(15.415625 243.599375)scale(0.1 -0.1)">
       <use xlink:href="#BitstreamVeraSans-Roman-55"/>
       <use x="73.193359375" xlink:href="#BitstreamVeraSans-Roman-2d"/>
       <use x="109.27734375" xlink:href="#BitstreamVeraSans-Roman-30"/>
       <use x="172.900390625" xlink:href="#BitstreamVeraSans-Roman-30"/>
       <use x="236.5234375" xlink:href="#BitstreamVeraSans-Roman-31"/>
       <use x="300.146484375" xlink:href="#BitstreamVeraSans-Roman-31"/>
      </g>
     </g>
    </g>
    <g id="ytick_2">
     <g id="text_19">
      <!-- U-0185 -->
      <defs>
       <path d="
M10.7969 72.9062
L49.5156 72.9062
L49.5156 64.5938
L19.8281 64.5938
L19.8281 46.7344
Q21.9688 47.4688 24.1094 47.8281
Q26.2656 48.1875 28.4219 48.1875
Q40.625 48.1875 47.75 41.5
Q54.8906 34.8125 54.8906 23.3906
Q54.8906 11.625 47.5625 5.09375
Q40.2344 -1.42188 26.9062 -1.42188
Q22.3125 -1.42188 17.5469 -0.640625
Q12.7969 0.140625 7.71875 1.70312
L7.71875 11.625
Q12.1094 9.23438 16.7969 8.0625
Q21.4844 6.89062 26.7031 6.89062
Q35.1562 6.89062 40.0781 11.3281
Q45.0156 15.7656 45.0156 23.3906
Q45.0156 31 40.0781 35.4375
Q35.1562 39.8906 26.7031 39.8906
Q22.75 39.8906 18.8125 39.0156
Q14.8906 38.1406 10.7969 36.2812
z
" id="BitstreamVeraSans-Roman-35"/>
      </defs>
      <g style="fill:#262626;" transform="translate(15.365625 232.439375)scale(0.1 -0.1)">
       <use xlink:href="#BitstreamVeraSans-Roman-55"/>
       <use x="73.193359375" xlink:href="#BitstreamVeraSans-Roman-2d"/>
       <use x="109.27734375" xlink:href="#BitstreamVeraSans-Roman-30"/>
       <use x="172.900390625" xlink:href="#BitstreamVeraSans-Roman-31"/>
       <use x="236.5234375" xlink:href="#BitstreamVeraSans-Roman-38"/>
       <use x="300.146484375" xlink:href="#BitstreamVeraSans-Roman-35"/>
      </g>
     </g>
    </g>
    <g id="ytick_3">
     <g id="text_20">
      <!-- U-0012 -->
      <g style="fill:#262626;" transform="translate(15.49375 221.279375)scale(0.1 -0.1)">
       <use xlink:href="#BitstreamVeraSans-Roman-55"/>
       <use x="73.193359375" xlink:href="#BitstreamVeraSans-Roman-2d"/>
       <use x="109.27734375" xlink:href="#BitstreamVeraSans-Roman-30"/>
       <use x="172.900390625" xlink:href="#BitstreamVeraSans-Roman-30"/>
       <use x="236.5234375" xlink:href="#BitstreamVeraSans-Roman-31"/>
       <use x="300.146484375" xlink:href="#BitstreamVeraSans-Roman-32"/>
      </g>
     </g>
    </g>
    <g id="ytick_4">
     <g id="text_21">
      <!-- U-0186 -->
      <g style="fill:#262626;" transform="translate(15.121875 210.119375)scale(0.1 -0.1)">
       <use xlink:href="#BitstreamVeraSans-Roman-55"/>
       <use x="73.193359375" xlink:href="#BitstreamVeraSans-Roman-2d"/>
       <use x="109.27734375" xlink:href="#BitstreamVeraSans-Roman-30"/>
       <use x="172.900390625" xlink:href="#BitstreamVeraSans-Roman-31"/>
       <use x="236.5234375" xlink:href="#BitstreamVeraSans-Roman-38"/>
       <use x="300.146484375" xlink:href="#BitstreamVeraSans-Roman-36"/>
      </g>
     </g>
    </g>
    <g id="ytick_5">
     <g id="text_22">
      <!-- U-0007 -->
      <defs>
       <path d="
M8.20312 72.9062
L55.0781 72.9062
L55.0781 68.7031
L28.6094 0
L18.3125 0
L43.2188 64.5938
L8.20312 64.5938
z
" id="BitstreamVeraSans-Roman-37"/>
      </defs>
      <g style="fill:#262626;" transform="translate(15.346875 198.959375)scale(0.1 -0.1)">
       <use xlink:href="#BitstreamVeraSans-Roman-55"/>
       <use x="73.193359375" xlink:href="#BitstreamVeraSans-Roman-2d"/>
       <use x="109.27734375" xlink:href="#BitstreamVeraSans-Roman-30"/>
       <use x="172.900390625" xlink:href="#BitstreamVeraSans-Roman-30"/>
       <use x="236.5234375" xlink:href="#BitstreamVeraSans-Roman-30"/>
       <use x="300.146484375" xlink:href="#BitstreamVeraSans-Roman-37"/>
      </g>
     </g>
    </g>
    <g id="ytick_6">
     <g id="text_23">
      <!-- U-0184 -->
      <g style="fill:#262626;" transform="translate(15.053125 187.799375)scale(0.1 -0.1)">
       <use xlink:href="#BitstreamVeraSans-Roman-55"/>
       <use x="73.193359375" xlink:href="#BitstreamVeraSans-Roman-2d"/>
       <use x="109.27734375" xlink:href="#BitstreamVeraSans-Roman-30"/>
       <use x="172.900390625" xlink:href="#BitstreamVeraSans-Roman-31"/>
       <use x="236.5234375" xlink:href="#BitstreamVeraSans-Roman-38"/>
       <use x="300.146484375" xlink:href="#BitstreamVeraSans-Roman-34"/>
      </g>
     </g>
    </g>
    <g id="ytick_7">
     <g id="text_24">
      <!-- U-0008 -->
      <g style="fill:#262626;" transform="translate(15.1765625 176.639375)scale(0.1 -0.1)">
       <use xlink:href="#BitstreamVeraSans-Roman-55"/>
       <use x="73.193359375" xlink:href="#BitstreamVeraSans-Roman-2d"/>
       <use x="109.27734375" xlink:href="#BitstreamVeraSans-Roman-30"/>
       <use x="172.900390625" xlink:href="#BitstreamVeraSans-Roman-30"/>
       <use x="236.5234375" xlink:href="#BitstreamVeraSans-Roman-30"/>
       <use x="300.146484375" xlink:href="#BitstreamVeraSans-Roman-38"/>
      </g>
     </g>
    </g>
    <g id="ytick_8">
     <g id="text_25">
      <!-- U-0014 -->
      <g style="fill:#262626;" transform="translate(15.053125 165.479375)scale(0.1 -0.1)">
       <use xlink:href="#BitstreamVeraSans-Roman-55"/>
       <use x="73.193359375" xlink:href="#BitstreamVeraSans-Roman-2d"/>
       <use x="109.27734375" xlink:href="#BitstreamVeraSans-Roman-30"/>
       <use x="172.900390625" xlink:href="#BitstreamVeraSans-Roman-30"/>
       <use x="236.5234375" xlink:href="#BitstreamVeraSans-Roman-31"/>
       <use x="300.146484375" xlink:href="#BitstreamVeraSans-Roman-34"/>
      </g>
     </g>
    </g>
    <g id="ytick_9">
     <g id="text_26">
      <!-- U-0017 -->
      <g style="fill:#262626;" transform="translate(15.346875 154.319375)scale(0.1 -0.1)">
       <use xlink:href="#BitstreamVeraSans-Roman-55"/>
       <use x="73.193359375" xlink:href="#BitstreamVeraSans-Roman-2d"/>
       <use x="109.27734375" xlink:href="#BitstreamVeraSans-Roman-30"/>
       <use x="172.900390625" xlink:href="#BitstreamVeraSans-Roman-30"/>
       <use x="236.5234375" xlink:href="#BitstreamVeraSans-Roman-31"/>
       <use x="300.146484375" xlink:href="#BitstreamVeraSans-Roman-37"/>
      </g>
     </g>
    </g>
    <g id="ytick_10">
     <g id="text_27">
      <!-- U-0178 -->
      <g style="fill:#262626;" transform="translate(15.1765625 143.159375)scale(0.1 -0.1)">
       <use xlink:href="#BitstreamVeraSans-Roman-55"/>
       <use x="73.193359375" xlink:href="#BitstreamVeraSans-Roman-2d"/>
       <use x="109.27734375" xlink:href="#BitstreamVeraSans-Roman-30"/>
       <use x="172.900390625" xlink:href="#BitstreamVeraSans-Roman-31"/>
       <use x="236.5234375" xlink:href="#BitstreamVeraSans-Roman-37"/>
       <use x="300.146484375" xlink:href="#BitstreamVeraSans-Roman-38"/>
      </g>
     </g>
    </g>
    <g id="ytick_11">
     <g id="text_28">
      <!-- U-0023 -->
      <defs>
       <path d="
M40.5781 39.3125
Q47.6562 37.7969 51.625 33
Q55.6094 28.2188 55.6094 21.1875
Q55.6094 10.4062 48.1875 4.48438
Q40.7656 -1.42188 27.0938 -1.42188
Q22.5156 -1.42188 17.6562 -0.515625
Q12.7969 0.390625 7.625 2.20312
L7.625 11.7188
Q11.7188 9.32812 16.5938 8.10938
Q21.4844 6.89062 26.8125 6.89062
Q36.0781 6.89062 40.9375 10.5469
Q45.7969 14.2031 45.7969 21.1875
Q45.7969 27.6406 41.2812 31.2656
Q36.7656 34.9062 28.7188 34.9062
L20.2188 34.9062
L20.2188 43.0156
L29.1094 43.0156
Q36.375 43.0156 40.2344 45.9219
Q44.0938 48.8281 44.0938 54.2969
Q44.0938 59.9062 40.1094 62.9062
Q36.1406 65.9219 28.7188 65.9219
Q24.6562 65.9219 20.0156 65.0312
Q15.375 64.1562 9.8125 62.3125
L9.8125 71.0938
Q15.4375 72.6562 20.3438 73.4375
Q25.25 74.2188 29.5938 74.2188
Q40.8281 74.2188 47.3594 69.1094
Q53.9062 64.0156 53.9062 55.3281
Q53.9062 49.2656 50.4375 45.0938
Q46.9688 40.9219 40.5781 39.3125" id="BitstreamVeraSans-Roman-33"/>
      </defs>
      <g style="fill:#262626;" transform="translate(15.29375 131.999375)scale(0.1 -0.1)">
       <use xlink:href="#BitstreamVeraSans-Roman-55"/>
       <use x="73.193359375" xlink:href="#BitstreamVeraSans-Roman-2d"/>
       <use x="109.27734375" xlink:href="#BitstreamVeraSans-Roman-30"/>
       <use x="172.900390625" xlink:href="#BitstreamVeraSans-Roman-30"/>
       <use x="236.5234375" xlink:href="#BitstreamVeraSans-Roman-32"/>
       <use x="300.146484375" xlink:href="#BitstreamVeraSans-Roman-33"/>
      </g>
     </g>
    </g>
    <g id="ytick_12">
     <g id="text_29">
      <!-- U-0020 -->
      <g style="fill:#262626;" transform="translate(15.15625 120.839375)scale(0.1 -0.1)">
       <use xlink:href="#BitstreamVeraSans-Roman-55"/>
       <use x="73.193359375" xlink:href="#BitstreamVeraSans-Roman-2d"/>
       <use x="109.27734375" xlink:href="#BitstreamVeraSans-Roman-30"/>
       <use x="172.900390625" xlink:href="#BitstreamVeraSans-Roman-30"/>
       <use x="236.5234375" xlink:href="#BitstreamVeraSans-Roman-32"/>
       <use x="300.146484375" xlink:href="#BitstreamVeraSans-Roman-30"/>
      </g>
     </g>
    </g>
    <g id="ytick_13">
     <g id="text_30">
      <!-- U-0193 -->
      <defs>
       <path d="
M10.9844 1.51562
L10.9844 10.5
Q14.7031 8.73438 18.5 7.8125
Q22.3125 6.89062 25.9844 6.89062
Q35.75 6.89062 40.8906 13.4531
Q46.0469 20.0156 46.7812 33.4062
Q43.9531 29.2031 39.5938 26.9531
Q35.25 24.7031 29.9844 24.7031
Q19.0469 24.7031 12.6719 31.3125
Q6.29688 37.9375 6.29688 49.4219
Q6.29688 60.6406 12.9375 67.4219
Q19.5781 74.2188 30.6094 74.2188
Q43.2656 74.2188 49.9219 64.5156
Q56.5938 54.8281 56.5938 36.375
Q56.5938 19.1406 48.4062 8.85938
Q40.2344 -1.42188 26.4219 -1.42188
Q22.7031 -1.42188 18.8906 -0.6875
Q15.0938 0.046875 10.9844 1.51562
M30.6094 32.4219
Q37.25 32.4219 41.125 36.9531
Q45.0156 41.5 45.0156 49.4219
Q45.0156 57.2812 41.125 61.8438
Q37.25 66.4062 30.6094 66.4062
Q23.9688 66.4062 20.0938 61.8438
Q16.2188 57.2812 16.2188 49.4219
Q16.2188 41.5 20.0938 36.9531
Q23.9688 32.4219 30.6094 32.4219" id="BitstreamVeraSans-Roman-39"/>
      </defs>
      <g style="fill:#262626;" transform="translate(15.29375 109.679375)scale(0.1 -0.1)">
       <use xlink:href="#BitstreamVeraSans-Roman-55"/>
       <use x="73.193359375" xlink:href="#BitstreamVeraSans-Roman-2d"/>
       <use x="109.27734375" xlink:href="#BitstreamVeraSans-Roman-30"/>
       <use x="172.900390625" xlink:href="#BitstreamVeraSans-Roman-31"/>
       <use x="236.5234375" xlink:href="#BitstreamVeraSans-Roman-39"/>
       <use x="300.146484375" xlink:href="#BitstreamVeraSans-Roman-33"/>
      </g>
     </g>
    </g>
    <g id="ytick_14">
     <g id="text_31">
      <!-- U-0180 -->
      <g style="fill:#262626;" transform="translate(15.15625 98.519375)scale(0.1 -0.1)">
       <use xlink:href="#BitstreamVeraSans-Roman-55"/>
       <use x="73.193359375" xlink:href="#BitstreamVeraSans-Roman-2d"/>
       <use x="109.27734375" xlink:href="#BitstreamVeraSans-Roman-30"/>
       <use x="172.900390625" xlink:href="#BitstreamVeraSans-Roman-31"/>
       <use x="236.5234375" xlink:href="#BitstreamVeraSans-Roman-38"/>
       <use x="300.146484375" xlink:href="#BitstreamVeraSans-Roman-30"/>
      </g>
     </g>
    </g>
    <g id="ytick_15">
     <g id="text_32">
      <!-- U-0019 -->
      <g style="fill:#262626;" transform="translate(15.1953125 87.359375)scale(0.1 -0.1)">
       <use xlink:href="#BitstreamVeraSans-Roman-55"/>
       <use x="73.193359375" xlink:href="#BitstreamVeraSans-Roman-2d"/>
       <use x="109.27734375" xlink:href="#BitstreamVeraSans-Roman-30"/>
       <use x="172.900390625" xlink:href="#BitstreamVeraSans-Roman-30"/>
       <use x="236.5234375" xlink:href="#BitstreamVeraSans-Roman-31"/>
       <use x="300.146484375" xlink:href="#BitstreamVeraSans-Roman-39"/>
      </g>
     </g>
    </g>
    <g id="ytick_16">
     <g id="text_33">
      <!-- U-0005 -->
      <g style="fill:#262626;" transform="translate(15.365625 76.199375)scale(0.1 -0.1)">
       <use xlink:href="#BitstreamVeraSans-Roman-55"/>
       <use x="73.193359375" xlink:href="#BitstreamVeraSans-Roman-2d"/>
       <use x="109.27734375" xlink:href="#BitstreamVeraSans-Roman-30"/>
       <use x="172.900390625" xlink:href="#BitstreamVeraSans-Roman-30"/>
       <use x="236.5234375" xlink:href="#BitstreamVeraSans-Roman-30"/>
       <use x="300.146484375" xlink:href="#BitstreamVeraSans-Roman-35"/>
      </g>
     </g>
    </g>
    <g id="ytick_17">
     <g id="text_34">
      <!-- U-0098 -->
      <g style="fill:#262626;" transform="translate(15.1765625 65.039375)scale(0.1 -0.1)">
       <use xlink:href="#BitstreamVeraSans-Roman-55"/>
       <use x="73.193359375" xlink:href="#BitstreamVeraSans-Roman-2d"/>
       <use x="109.27734375" xlink:href="#BitstreamVeraSans-Roman-30"/>
       <use x="172.900390625" xlink:href="#BitstreamVeraSans-Roman-30"/>
       <use x="236.5234375" xlink:href="#BitstreamVeraSans-Roman-39"/>
       <use x="300.146484375" xlink:href="#BitstreamVeraSans-Roman-38"/>
      </g>
     </g>
    </g>
    <g id="ytick_18">
     <g id="text_35">
      <!-- U-0181 -->
      <g style="fill:#262626;" transform="translate(15.415625 53.879375)scale(0.1 -0.1)">
       <use xlink:href="#BitstreamVeraSans-Roman-55"/>
       <use x="73.193359375" xlink:href="#BitstreamVeraSans-Roman-2d"/>
       <use x="109.27734375" xlink:href="#BitstreamVeraSans-Roman-30"/>
       <use x="172.900390625" xlink:href="#BitstreamVeraSans-Roman-31"/>
       <use x="236.5234375" xlink:href="#BitstreamVeraSans-Roman-38"/>
       <use x="300.146484375" xlink:href="#BitstreamVeraSans-Roman-31"/>
      </g>
     </g>
    </g>
    <g id="ytick_19">
     <g id="text_36">
      <!-- U-0183 -->
      <g style="fill:#262626;" transform="translate(15.29375 42.719375)scale(0.1 -0.1)">
       <use xlink:href="#BitstreamVeraSans-Roman-55"/>
       <use x="73.193359375" xlink:href="#BitstreamVeraSans-Roman-2d"/>
       <use x="109.27734375" xlink:href="#BitstreamVeraSans-Roman-30"/>
       <use x="172.900390625" xlink:href="#BitstreamVeraSans-Roman-31"/>
       <use x="236.5234375" xlink:href="#BitstreamVeraSans-Roman-38"/>
       <use x="300.146484375" xlink:href="#BitstreamVeraSans-Roman-33"/>
      </g>
     </g>
    </g>
    <g id="text_37">
     <!-- Interview -->
     <defs>
      <path d="
M41.1094 46.2969
Q39.5938 47.1719 37.8125 47.5781
Q36.0312 48 33.8906 48
Q26.2656 48 22.1875 43.0469
Q18.1094 38.0938 18.1094 28.8125
L18.1094 0
L9.07812 0
L9.07812 54.6875
L18.1094 54.6875
L18.1094 46.1875
Q20.9531 51.1719 25.4844 53.5781
Q30.0312 56 36.5312 56
Q37.4531 56 38.5781 55.875
Q39.7031 55.7656 41.0625 55.5156
z
" id="BitstreamVeraSans-Roman-72"/>
      <path d="
M9.8125 72.9062
L19.6719 72.9062
L19.6719 0
L9.8125 0
z
" id="BitstreamVeraSans-Roman-49"/>
      <path d="
M2.98438 54.6875
L12.5 54.6875
L29.5938 8.79688
L46.6875 54.6875
L56.2031 54.6875
L35.6875 0
L23.4844 0
z
" id="BitstreamVeraSans-Roman-76"/>
      <path d="
M4.20312 54.6875
L13.1875 54.6875
L24.4219 12.0156
L35.5938 54.6875
L46.1875 54.6875
L57.4219 12.0156
L68.6094 54.6875
L77.5938 54.6875
L63.2812 0
L52.6875 0
L40.9219 44.8281
L29.1094 0
L18.5 0
z
" id="BitstreamVeraSans-Roman-77"/>
     </defs>
     <g style="fill:#262626;" transform="translate(7.9734375 162.95)rotate(-90.0)scale(0.1 -0.1)">
      <use xlink:href="#BitstreamVeraSans-Roman-49"/>
      <use x="29.4921875" xlink:href="#BitstreamVeraSans-Roman-6e"/>
      <use x="92.87109375" xlink:href="#BitstreamVeraSans-Roman-74"/>
      <use x="132.080078125" xlink:href="#BitstreamVeraSans-Roman-65"/>
      <use x="193.603515625" xlink:href="#BitstreamVeraSans-Roman-72"/>
      <use x="234.716796875" xlink:href="#BitstreamVeraSans-Roman-76"/>
      <use x="293.896484375" xlink:href="#BitstreamVeraSans-Roman-69"/>
      <use x="321.6796875" xlink:href="#BitstreamVeraSans-Roman-65"/>
      <use x="383.203125" xlink:href="#BitstreamVeraSans-Roman-77"/>
     </g>
    </g>
   </g>
  </g>
 </g>
 <defs>
  <clipPath id="p124b8dd147">
   <rect height="223.2" width="334.8" x="54.0" y="28.8"/>
  </clipPath>
 </defs>
</svg>
